<svg width="583" height="641" viewBox="0 0 583 641" fill="none" xmlns="http://www.w3.org/2000/svg">
<path opacity="0.1" d="M427.128 488.17C334.198 530.426 214.515 527.431 214.515 527.431H84.996V502.701C137.775 487.968 210.751 478.861 291.417 478.861C336.819 478.702 382.173 481.813 427.128 488.17Z" fill="black"/>
<path opacity="0.5" d="M582.834 559.81C582.834 604.535 452.344 640.76 291.417 640.76C130.49 640.76 0 604.535 0 559.81C0 537.51 32.461 517.31 85 502.7V527.43H214.515C214.515 527.43 334.198 530.425 427.128 488.169C519.693 501.688 582.834 528.685 582.834 559.81Z" fill="#BAC9CE"/>
<path d="M328.636 55.7769H204.642V179.992H328.636V55.7769Z" fill="#ADA16E"/>
<path d="M250.754 143.621C250.754 143.621 261.017 179.542 243.054 182.108C231.908 183.845 221.346 188.246 212.264 194.937L245.62 238.556H307.201L345.688 200.069C345.688 200.069 294.372 161.582 304.635 138.489C314.898 115.396 250.754 143.621 250.754 143.621Z" fill="#FCECDE"/>
<path d="M266.147 590.072L325.163 610.597L366.212 613.163L363.646 577.242L278.977 552.2L266.147 590.072Z" fill="#FCECDE"/>
<path d="M341.842 582.371C341.842 582.371 341.842 618.292 346.974 618.292C352.106 618.292 421.382 610.592 441.909 618.292C462.436 625.992 493.225 597.771 477.83 582.371C462.435 566.971 437.324 543.884 421.655 549.015C405.986 554.146 341.841 566.976 341.841 566.976L341.842 582.371Z" fill="white"/>
<path d="M153.254 549.02C153.254 549.02 122.464 610.6 142.991 615.731C163.518 620.862 186.61 613.165 189.176 610.599C191.742 608.033 227.663 597.769 232.795 602.898C237.927 608.027 237.926 582.372 237.926 582.372L153.254 549.02Z" fill="white"/>
<path d="M178.912 464.348C178.912 464.348 130.161 531.06 166.083 549.02C202.005 566.98 373.914 566.981 386.743 549.02C399.572 531.059 404.704 474.611 386.743 469.479C368.782 464.347 178.912 464.348 178.912 464.348Z" fill="#A6D6EA"/>
<path d="M271.28 161.576C303.873 161.576 330.294 135.154 330.294 102.562C330.294 69.9693 303.873 43.5479 271.28 43.5479C238.687 43.5479 212.266 69.9693 212.266 102.562C212.266 135.154 238.687 161.576 271.28 161.576Z" fill="#FCECDE"/>
<path d="M178.912 194.936L230.228 184.673C230.228 184.673 243.057 225.726 284.11 218.029C325.163 210.332 335.426 184.673 335.426 184.673C335.426 184.673 366.216 197.502 368.782 197.502C371.348 197.502 404.704 210.331 404.704 218.029C404.704 225.727 366.217 302.701 366.217 302.701L371.348 441.256L181.477 436.124L194.307 300.136L178.912 194.936Z" fill="white"/>
<path d="M150.687 261.65C150.687 261.65 135.292 397.639 145.555 407.902C155.818 418.165 196.871 446.389 196.871 446.389V415.599L176.345 377.112L196.872 287.312L150.687 261.65Z" fill="#FCECDE"/>
<path d="M416.25 257.798C416.25 257.798 407.27 397.636 407.27 402.767C407.27 407.898 384.177 425.86 376.483 425.86C368.789 425.86 363.654 413.031 363.654 413.031L381.615 392.504L368.783 287.305L416.25 257.798Z" fill="#FCECDE"/>
<path d="M391.875 454.085C391.875 454.085 507.337 389.939 509.902 454.085C512.467 518.231 450.888 543.885 450.888 543.885C450.888 543.885 291.807 591.585 285.388 574.151C278.969 556.717 266.144 528.49 276.408 525.925C286.672 523.36 299.5 518.225 304.632 523.359C309.764 528.493 373.914 484.875 373.914 484.875L391.875 454.085Z" fill="#C2E9FB"/>
<path d="M445.756 446.386C445.756 446.386 422.664 456.649 414.967 464.344C407.27 472.039 373.91 484.874 373.91 484.874" stroke="#A6D6EA" stroke-width="2" stroke-miterlimit="10"/>
<path d="M194.307 200.068L178.907 194.936C178.907 194.936 122.459 253.95 140.42 269.345C158.381 284.74 168.644 289.872 173.776 295.003C178.908 300.134 204.566 302.703 204.566 302.703L194.307 200.068Z" fill="white"/>
<path d="M381.612 212.898L404.704 218.03C404.704 218.03 422.665 256.517 427.796 261.649C432.927 266.781 420.096 264.215 412.401 274.478C404.706 284.741 397.001 302.702 381.611 302.702C366.221 302.702 345.69 277.044 345.69 277.044L381.612 212.898Z" fill="white"/>
<path d="M184.043 477.179C184.043 477.179 86.543 407.902 53.186 459.218C19.829 510.534 196.872 579.812 222.53 590.075C248.188 600.338 271.281 610.602 271.281 610.602C271.281 610.602 294.373 554.154 294.373 543.891C294.373 533.628 276.412 533.628 271.281 533.628C266.15 533.628 243.057 528.496 237.925 520.799C232.793 513.102 184.043 477.179 184.043 477.179Z" fill="#C2E9FB"/>
<path d="M130.161 459.216C130.161 459.216 155.819 479.743 178.912 484.874C202.005 490.005 209.702 502.835 209.702 502.835" stroke="#A6D6EA" stroke-width="2" stroke-miterlimit="10"/>
<path d="M166.343 362.743L168.393 471.381C168.461 474.969 169.944 478.385 172.519 480.885C175.095 483.384 178.554 484.764 182.143 484.724L384.311 482.453C387.756 482.414 391.059 481.069 393.551 478.69C396.042 476.31 397.538 473.074 397.736 469.634L403.873 363.267C403.98 361.418 403.708 359.567 403.073 357.827C402.439 356.087 401.457 354.495 400.185 353.148C398.914 351.802 397.381 350.729 395.681 349.995C393.98 349.262 392.148 348.884 390.296 348.884H179.941C178.133 348.883 176.344 349.244 174.677 349.943C173.01 350.642 171.499 351.667 170.233 352.957C168.966 354.247 167.97 355.777 167.302 357.457C166.634 359.136 166.307 360.932 166.341 362.74L166.343 362.743Z" fill="#4B6075"/>
<path d="M161.677 183.957C167.183 171.806 174.583 160.404 178.109 147.538C182.335 132.118 180.689 115.802 180.186 99.8207C179.383 85.6869 180.587 71.5105 183.763 57.7147C186.989 43.8533 194.228 31.2499 204.576 21.4797C231.465 -2.52028 257.853 -4.24827 290.686 5.74473C303.63 9.68473 317.418 17.1857 320.628 30.3297C321.112 32.3147 321.328 34.3587 321.871 36.3297C324.559 46.1157 334.571 52.3087 338.183 61.7927C342.855 74.0597 335.651 87.3997 334.709 100.493C333.609 115.779 341.124 130.219 348.53 143.636C352.93 151.612 357.511 160.108 357.074 169.208C356.71 174.186 355.197 179.012 352.653 183.308C347.934 191.093 341.316 197.552 333.418 202.079C325.52 206.607 316.602 209.054 307.499 209.192C301.582 209.666 295.666 208.269 290.586 205.199C282.573 199.682 280.226 188.572 281.895 178.987C283.564 169.402 288.429 160.734 292.242 151.787C293.412 149.04 294.467 146.247 295.442 143.426C307.263 136.827 316.372 126.264 321.161 113.601C325.95 100.938 326.11 86.9909 321.614 74.2215C317.117 61.4521 308.253 50.6822 296.587 43.8138C284.921 36.9453 271.203 34.4202 257.855 36.6841C244.508 38.9481 232.39 45.8556 223.641 56.1868C214.892 66.518 210.075 79.6084 210.041 93.1463C210.007 106.684 214.758 119.799 223.454 130.174C232.15 140.55 244.233 147.518 257.569 149.85C260.444 164.331 259.137 179.331 253.803 193.097C248.952 204.297 242.861 214.918 235.643 224.761C232.691 229.807 228.757 234.209 224.074 237.708C220.987 239.535 217.673 240.951 214.218 241.917C199.725 246.578 207.286 250.328 192.208 248.232C177.13 246.136 162.196 237.041 157.058 222.71C152.554 210.141 156.171 196.107 161.677 183.957Z" fill="#ADA16E"/>
<path d="M264.316 93.2949C298.905 93.2949 326.945 77.4055 326.945 57.8049C326.945 38.2044 298.905 22.3149 264.316 22.3149C229.727 22.3149 201.687 38.2044 201.687 57.8049C201.687 77.4055 229.727 93.2949 264.316 93.2949Z" fill="#ADA16E"/>
<path d="M311.443 416.985V414.981L295.315 406.767V409.973L307.686 415.933L307.586 415.732V416.233L307.686 416.033L295.315 421.993V425.199L311.443 416.985ZM279.986 399.154L288.25 429.857H290.955L282.691 399.154H279.986ZM259.504 416.985L275.632 425.199V421.993L263.26 416.033L263.361 416.233V415.732L263.26 415.933L275.632 409.973V406.767L259.504 414.981V416.985Z" fill="#C2E9FB"/>
</svg>
