<svg width="583" height="641" viewBox="0 0 583 641" fill="none" xmlns="http://www.w3.org/2000/svg">
<g clip-path="url(#clip0_109329_531)">
<path opacity="0.1" d="M427.129 488.17C334.199 530.426 214.516 527.431 214.516 527.431H84.9969V502.701C137.776 487.968 210.752 478.861 291.418 478.861C336.82 478.702 382.174 481.813 427.129 488.17Z" fill="black"/>
<path opacity="0.5" d="M582.835 559.81C582.835 604.535 452.345 640.76 291.418 640.76C130.491 640.76 0.000976562 604.535 0.000976562 559.81C0.000976562 537.51 32.462 517.31 85.001 502.7V527.43H214.516C214.516 527.43 334.199 530.425 427.129 488.169C519.694 501.688 582.835 528.685 582.835 559.81Z" fill="#BAC9CE"/>
<path d="M328.637 55.7769H204.643V179.992H328.637V55.7769Z" fill="#ADA16E"/>
<path d="M250.755 143.621C250.755 143.621 261.018 179.542 243.055 182.108C231.909 183.845 221.347 188.246 212.265 194.937L245.621 238.556H307.202L345.689 200.069C345.689 200.069 294.373 161.582 304.636 138.489C314.899 115.396 250.755 143.621 250.755 143.621Z" fill="#FCECDE"/>
<path d="M266.148 590.072L325.164 610.597L366.213 613.163L363.647 577.242L278.978 552.2L266.148 590.072Z" fill="#FCECDE"/>
<path d="M341.843 582.371C341.843 582.371 341.843 618.292 346.975 618.292C352.107 618.292 421.383 610.592 441.91 618.292C462.437 625.992 493.226 597.771 477.831 582.371C462.436 566.971 437.325 543.884 421.656 549.015C405.987 554.146 341.842 566.976 341.842 566.976L341.843 582.371Z" fill="white"/>
<path d="M153.255 549.02C153.255 549.02 122.465 610.6 142.992 615.731C163.519 620.862 186.611 613.165 189.177 610.599C191.743 608.033 227.664 597.769 232.796 602.898C237.928 608.027 237.927 582.372 237.927 582.372L153.255 549.02Z" fill="white"/>
<path d="M178.913 464.348C178.913 464.348 130.162 531.06 166.084 549.02C202.006 566.98 373.915 566.981 386.744 549.02C399.573 531.059 404.705 474.611 386.744 469.479C368.783 464.347 178.913 464.348 178.913 464.348Z" fill="#A6D6EA"/>
<path d="M271.281 161.576C303.874 161.576 330.295 135.154 330.295 102.562C330.295 69.9693 303.874 43.5479 271.281 43.5479C238.688 43.5479 212.267 69.9693 212.267 102.562C212.267 135.154 238.688 161.576 271.281 161.576Z" fill="#FCECDE"/>
<path d="M178.913 194.936L230.229 184.673C230.229 184.673 243.058 225.726 284.111 218.029C325.164 210.332 335.427 184.673 335.427 184.673C335.427 184.673 366.217 197.502 368.783 197.502C371.349 197.502 404.705 210.331 404.705 218.029C404.705 225.727 366.218 302.701 366.218 302.701L371.349 441.256L181.478 436.124L194.308 300.136L178.913 194.936Z" fill="white"/>
<path d="M150.688 261.65C150.688 261.65 135.293 397.639 145.556 407.902C155.819 418.165 196.872 446.389 196.872 446.389V415.599L176.346 377.112L196.873 287.312L150.688 261.65Z" fill="#FCECDE"/>
<path d="M416.251 257.798C416.251 257.798 407.271 397.636 407.271 402.767C407.271 407.898 384.178 425.86 376.484 425.86C368.79 425.86 363.655 413.031 363.655 413.031L381.616 392.504L368.784 287.305L416.251 257.798Z" fill="#FCECDE"/>
<path d="M391.876 454.085C391.876 454.085 507.338 389.939 509.903 454.085C512.468 518.231 450.889 543.885 450.889 543.885C450.889 543.885 291.808 591.585 285.389 574.151C278.97 556.717 266.145 528.49 276.409 525.925C286.673 523.36 299.501 518.225 304.633 523.359C309.765 528.493 373.915 484.875 373.915 484.875L391.876 454.085Z" fill="#C2E9FB"/>
<path d="M445.757 446.386C445.757 446.386 422.665 456.649 414.968 464.344C407.271 472.039 373.911 484.874 373.911 484.874" stroke="#A6D6EA" stroke-width="2" stroke-miterlimit="10"/>
<path d="M194.308 200.068L178.908 194.936C178.908 194.936 122.46 253.95 140.421 269.345C158.382 284.74 168.645 289.872 173.777 295.003C178.909 300.134 204.567 302.703 204.567 302.703L194.308 200.068Z" fill="white"/>
<path d="M381.613 212.898L404.705 218.03C404.705 218.03 422.666 256.517 427.797 261.649C432.928 266.781 420.097 264.215 412.402 274.478C404.707 284.741 397.002 302.702 381.612 302.702C366.222 302.702 345.691 277.044 345.691 277.044L381.613 212.898Z" fill="white"/>
<path d="M184.044 477.179C184.044 477.179 86.544 407.902 53.187 459.218C19.83 510.534 196.873 579.812 222.531 590.075C248.189 600.338 271.282 610.602 271.282 610.602C271.282 610.602 294.374 554.154 294.374 543.891C294.374 533.628 276.413 533.628 271.282 533.628C266.151 533.628 243.058 528.496 237.926 520.799C232.794 513.102 184.044 477.179 184.044 477.179Z" fill="#C2E9FB"/>
<path d="M130.162 459.216C130.162 459.216 155.82 479.743 178.913 484.874C202.006 490.005 209.703 502.835 209.703 502.835" stroke="#A6D6EA" stroke-width="2" stroke-miterlimit="10"/>
<path d="M166.344 362.743L168.394 471.381C168.462 474.969 169.945 478.385 172.52 480.885C175.096 483.384 178.555 484.764 182.144 484.724L384.312 482.453C387.757 482.414 391.06 481.069 393.551 478.69C396.043 476.31 397.539 473.074 397.737 469.634L403.874 363.267C403.981 361.418 403.709 359.567 403.074 357.827C402.44 356.087 401.458 354.495 400.186 353.148C398.915 351.802 397.382 350.729 395.682 349.995C393.981 349.262 392.149 348.884 390.297 348.884H179.942C178.134 348.883 176.345 349.244 174.678 349.943C173.011 350.642 171.5 351.667 170.234 352.957C168.967 354.247 167.971 355.777 167.303 357.457C166.635 359.136 166.308 360.932 166.342 362.74L166.344 362.743Z" fill="#4B6075"/>
<path d="M164.653 188.957C170.159 176.806 177.559 165.404 181.085 152.538C185.311 137.118 183.665 120.802 183.162 104.821C182.359 90.6869 183.563 76.5105 186.739 62.7147C189.964 48.8533 197.203 36.2499 207.552 26.4797C234.441 2.47972 260.829 0.75173 293.662 10.7447C306.606 14.6847 320.394 22.1857 323.604 35.3297C324.088 37.3147 324.304 39.3587 324.847 41.3297C327.535 51.1157 337.547 57.3087 341.159 66.7927C345.831 79.0597 338.627 92.3997 337.685 105.493C336.585 120.779 344.1 135.219 351.506 148.636C355.906 156.612 360.487 165.108 360.05 174.208C359.685 179.186 358.172 184.012 355.629 188.308C350.91 196.093 344.291 202.552 336.393 207.079C328.495 211.607 319.577 214.054 310.475 214.192C304.558 214.666 298.642 213.269 293.562 210.199C285.549 204.682 283.202 193.572 284.871 183.987C286.54 174.402 291.405 165.734 295.218 156.787C296.388 154.04 297.443 151.247 298.418 148.426C310.239 141.827 319.348 131.264 324.137 118.601C328.925 105.938 323.604 89 324.589 79.2215C320.093 66.4521 311.229 55.6822 299.562 48.8138C287.896 41.9453 274.178 39.4202 260.831 41.6841C247.484 43.9481 265.527 52.3835 256.779 62.7147C248.03 73.0459 213.051 84.6084 213.017 98.1463C212.983 111.684 217.733 124.799 226.43 135.174C235.126 145.55 247.209 152.518 260.545 154.85C263.419 169.331 262.113 184.331 256.779 198.097C251.928 209.297 246.475 219 240.475 231C236.975 236 234.475 240 230.475 243.5C226.475 247 218.475 250 218.475 250C218.475 250 204.475 254 195.184 253.232C180.012 251.977 165.172 242.041 160.034 227.71C155.53 215.141 159.147 201.107 164.653 188.957Z" fill="#ADA16E"/>
<path d="M304 89C338.589 89 326.946 77.4055 326.946 57.8049C326.946 38.2044 298.906 22.3149 264.317 22.3149C229.728 22.3149 241.371 33.9094 241.371 53.51C241.371 73.1106 269.411 89 304 89Z" fill="#ADA16E"/>
<path d="M311.444 416.985V414.981L295.316 406.767V409.973L307.687 415.933L307.587 415.732V416.233L307.687 416.033L295.316 421.993V425.199L311.444 416.985ZM279.987 399.154L288.251 429.857H290.956L282.692 399.154H279.987ZM259.505 416.985L275.633 425.199V421.993L263.261 416.033L263.362 416.233V415.732L263.261 415.933L275.633 409.973V406.767L259.505 414.981V416.985Z" fill="#C2E9FB"/>
</g>
<defs>
<clipPath id="clip0_109329_531">
<rect width="582.834" height="640.76" fill="white"/>
</clipPath>
</defs>
</svg>
