<svg width="18" height="28" viewBox="0 0 18 28" fill="none" xmlns="http://www.w3.org/2000/svg">
<path fill-rule="evenodd" clip-rule="evenodd" d="M9.00126 0C9.26648 0 9.52083 0.105357 9.70837 0.292893C9.89591 0.48043 10.0013 0.734784 10.0013 1V24.586L16.2933 18.292C16.481 18.1042 16.7357 17.9987 17.0013 17.9987C17.2668 17.9987 17.5215 18.1042 17.7093 18.292C17.897 18.4798 18.0025 18.7344 18.0025 19C18.0025 19.2656 17.897 19.5202 17.7093 19.708L9.70926 27.708C9.61637 27.8011 9.50602 27.875 9.38453 27.9254C9.26304 27.9758 9.1328 28.0018 9.00126 28.0018C8.86973 28.0018 8.73949 27.9758 8.618 27.9254C8.49651 27.875 8.38615 27.8011 8.29326 27.708L0.293263 19.708C0.10549 19.5202 -6.25661e-09 19.2656 0 19C6.25661e-09 18.7344 0.10549 18.4798 0.293263 18.292C0.481036 18.1042 0.735712 17.9987 1.00126 17.9987C1.26681 17.9987 1.52149 18.1042 1.70926 18.292L8.00126 24.586V1C8.00126 0.734784 8.10662 0.48043 8.29416 0.292893C8.48169 0.105357 8.73605 0 9.00126 0Z" fill="#D7E5EC"/>
</svg>
