<svg width="33" height="31" viewBox="0 0 33 31" fill="none" xmlns="http://www.w3.org/2000/svg">
<path d="M8.86911 23.5418L10.9315 20.915L4.29222 15.5017L10.9315 10.0884L8.86911 7.46159L0.619495 14.1883C0.426199 14.3458 0.270154 14.5457 0.162917 14.773C0.0556804 15.0004 0 15.2494 0 15.5017C0 15.7539 0.0556804 16.003 0.162917 16.2303C0.270154 16.4577 0.426199 16.6575 0.619495 16.8151L8.86911 23.5418ZM24.1309 7.46159L22.0685 10.0884L28.7078 15.5017L22.0685 20.915L24.1309 23.5418L32.3805 16.8151C32.5738 16.6575 32.7298 16.4577 32.8371 16.2303C32.9443 16.003 33 15.7539 33 15.5017C33 15.2494 32.9443 15.0004 32.8371 14.773C32.7298 14.5457 32.5738 14.3458 32.3805 14.1883L24.1309 7.46159ZM21.4102 0.729847L14.8105 31L11.5882 30.2702L18.1879 0L21.4102 0.729847Z" fill="url(#paint0_linear_109293_821)"/>
<defs>
<linearGradient id="paint0_linear_109293_821" x1="0" y1="15.5" x2="33" y2="15.5" gradientUnits="userSpaceOnUse">
<stop stop-color="#A1C4FD"/>
<stop offset="1" stop-color="#C2E9FB"/>
</linearGradient>
</defs>
</svg>
