<svg width="471" height="444" viewBox="0 0 471 444" fill="none" xmlns="http://www.w3.org/2000/svg">
<path opacity="0.5" d="M235.5 443.84C105.437 443.84 0 432.826 0 419.24C0 405.654 105.437 394.64 235.5 394.64C365.563 394.64 471 405.654 471 419.24C471 432.826 365.563 443.84 235.5 443.84Z" fill="#BAC9CE"/>
<path d="M220.18 178.5C220.18 182.05 223.08 184.95 226.63 184.95H308.09C311.64 184.95 314.54 182.05 314.54 178.5V96.7698C314.54 93.2198 311.64 90.3198 308.09 90.3198H226.63C223.08 90.3198 220.18 93.2198 220.18 96.7698V178.5Z" fill="#BAC9CE"/>
<path d="M226.63 90.3398H267.36V184.96H226.63C223.08 184.96 220.18 182.06 220.18 178.51V96.7798C220.18 93.2298 223.08 90.3398 226.63 90.3398Z" fill="#4B6075"/>
<path opacity="0.5" d="M274.22 96.7798H308.09V115.73H274.22V96.7798Z" fill="#4B6075"/>
<path opacity="0.5" d="M274.22 120.39H308.09V139.34H274.22V120.39Z" fill="#4B6075"/>
<path d="M274.42 144.08H308.29V163.03H274.42V144.08Z" fill="#4B6075"/>
<path d="M274.22 167.08H308.09V178.96H274.22V167.08Z" fill="#4B6075"/>
<path d="M72.5902 393.65C72.5902 397.2 75.4902 400.1 79.0402 400.1H174.21C177.76 400.1 180.66 397.2 180.66 393.65V287.66C180.66 284.11 177.76 281.21 174.21 281.21H79.0402C75.4902 281.21 72.5902 284.11 72.5902 287.66V393.65Z" fill="#BAC9CE"/>
<g opacity="0.5">
<path d="M126.62 393.65C126.62 397.2 123.72 400.1 120.17 400.1H79.0401C75.4901 400.1 72.5901 397.2 72.5901 393.65V287.66C72.5901 284.11 75.4901 281.21 79.0401 281.21H120.17C123.72 281.21 126.62 284.11 126.62 287.66V393.65Z" fill="#4B6075"/>
</g>
<path opacity="0.5" d="M134.69 289.27H173.67V331.48H134.69V289.27Z" fill="#4B6075"/>
<path opacity="0.3" d="M134.69 337.93H173.67V394.39H134.69V337.93Z" fill="#4B6075"/>
<path d="M138.72 386.18C138.72 388.49 140.59 390.36 142.88 390.36C145.19 390.36 147.06 388.49 147.06 386.18C147.06 383.87 145.19 382.02 142.88 382.02C140.59 382.02 138.72 383.89 138.72 386.18Z" fill="#C4DAFF"/>
<path opacity="0.5" d="M138.72 340.65H169.77V343.97H138.72V340.65Z" fill="#4B6075"/>
<path opacity="0.5" d="M138.72 346.97H169.77V350.29H138.72V346.97Z" fill="#4B6075"/>
<path d="M32.2601 184.96H215.34V198.4H32.2601V184.96Z" fill="#C2E9FB"/>
<path d="M32.26 184.96H82.26V198.4H32.26V184.96Z" fill="#C2E9FB"/>
<path d="M51.08 198.4H57.26V417.7H51.08V198.4Z" fill="#C2E9FB"/>
<path d="M57.262 400.105H189.35V406.68H180.658V417.703H174.475V406.68H57.262V400.105Z" fill="#C2E9FB"/>
<path d="M142.82 406.68H149V417.7H142.82V406.68Z" fill="#C2E9FB"/>
<path d="M89.5202 198.4H95.7002V417.7H89.5202V198.4Z" fill="#C2E9FB"/>
<path d="M28.1301 114.24C28.1301 117.79 31.0301 120.69 34.5801 120.69H55.6501C59.2001 120.69 62.1001 117.79 62.1001 114.24V8.24981C62.1001 4.69981 59.2001 1.7998 55.6501 1.7998H34.5801C31.0301 1.7998 28.1301 4.69981 28.1301 8.24981V114.24Z" fill="#C2E9FB"/>
<path d="M39.42 112.74C39.42 117.11 43 120.69 47.39 120.69H196.27C200.64 120.69 204.24 117.11 204.24 112.74V9.76981C204.24 5.37981 200.64 1.7998 196.27 1.7998H47.39C43 1.7998 39.42 5.37981 39.42 9.76981V112.74Z" fill="#A1C4FD"/>
<path d="M45.5701 108.34C45.5701 112.37 48.8801 115.68 52.9101 115.68H190.76C194.79 115.68 198.1 112.37 198.1 108.34V14.1598C198.1 10.1298 194.79 6.83984 190.76 6.83984H52.9101C48.8801 6.83984 45.5701 10.1298 45.5701 14.1598V108.34Z" fill="white"/>
<path d="M109.69 120.7H121.83V184.96H109.69V120.7Z" fill="#A1C4FD"/>
<path d="M108.07 120.7H112.91V184.96H108.07V120.7Z" fill="#C2E9FB"/>
<path d="M85.4901 177.52H147.32V184.96H85.4901V177.52Z" fill="#A1C4FD"/>
<path d="M85.49 177.52H103.77V184.96H85.49V177.52Z" fill="#C2E9FB"/>
<path opacity="0.5" d="M108.07 120.7H121.83V123.46H108.07V120.7Z" fill="#281830"/>
<path d="M273.05 402.65L271.99 396.42L296.67 392.24L297.94 398C297.94 398 303.05 415.21 297.94 417.69C292.83 420.19 259.76 419.24 257.74 417.69C255.72 416.16 273.05 402.64 273.05 402.64V402.65Z" fill="#4B6075"/>
<path d="M285.21 282.28L308.08 386.05C308.08 386.05 287.11 402.65 257.58 393.97C239.84 346.66 216.77 279.41 232.85 275.46C248.93 271.52 279.58 273.3 279.58 273.3L285.21 282.28Z" fill="#A1C4FD"/>
<path d="M252.31 398C252.31 398 257.44 415.21 252.31 417.69C247.2 420.19 206.47 419.24 204.45 417.69C202.43 416.16 227.42 402.64 227.42 402.64V398.9C227.42 398.9 236.28 400.75 252.31 398Z" fill="#4B6075"/>
<path d="M294.38 229.86C294.38 229.86 207.55 237.1 197.87 259.68C188.19 282.26 216.68 395.12 216.68 395.12C216.68 395.12 241.42 409.3 268.84 389.8C261.31 362.93 240.24 282.31 241.85 279.62C243.46 276.94 374.1 283.89 389.47 275.28C404.86 266.68 398.94 238.73 388.73 227.44C372.07 216.15 329.05 241.96 294.37 229.86H294.38Z" fill="#C2E9FB"/>
<path d="M314.54 90.3398C314.54 90.3398 300.97 94.3698 299.28 103.24C297.6 112.11 276.63 176.45 191.14 178.95C191.14 178.95 187.11 186.31 191.14 191.95C196.79 198.4 251.13 215.34 298.16 195.18C299.27 222.6 294.37 229.86 294.37 229.86C294.37 229.86 323.42 248.41 358.1 244.38C392.76 240.35 389.39 230.67 389.39 230.67C389.39 230.67 387.87 132.82 377.81 114.4C365.34 95.1698 337.92 82.2698 314.53 90.3298L314.54 90.3398Z" fill="white"/>
<path d="M299.78 43.1199C299.78 43.1199 293.76 85.6099 323.78 80.1699C353.25 69.3599 348.94 53.2299 348.94 53.2299L329.05 32.2599C329.05 32.2599 301.68 19.5499 299.77 43.1199H299.78Z" fill="#FCECDE"/>
<path d="M341.43 0.0100002C324.22 0.0100002 295.18 2.16 298.41 38.72C300.56 48.4 304.86 49.2 306.48 38.72C309.71 49.2 323.42 60.5 330.68 53.24C330.68 47.59 341.7 48.97 343.05 54.72C344.39 60.49 337.13 69.37 329.07 65.33C327.46 75.81 321.81 85.49 314.55 90.33C325.84 89.52 333.91 102.43 332.29 114.53C335.52 127.43 381.49 119.37 385.52 107.27C389.55 95.17 397.62 17.75 364.55 5.65C354.87 -4.76837e-07 341.44 0 341.44 0L341.43 0.0100002Z" fill="#BFB16E"/>
<path d="M191.14 178.95C191.14 178.95 164.53 173.13 161.83 184.95C172.59 184.95 189.4 184.95 189.4 184.95L191.14 178.95Z" fill="#FCECDE"/>
<path d="M146.444 62.9846V60.9811L130.316 52.7671V55.9725L142.687 61.9328L142.587 61.7324V62.2333L142.687 62.0329L130.316 67.9931V71.1986L146.444 62.9846ZM114.987 45.154L123.251 75.8566H125.956L117.692 45.154H114.987ZM94.5049 62.9846L110.633 71.1986V67.9931L98.2614 62.0329L98.3615 62.2333V61.7324L98.2614 61.9328L110.633 55.9725V52.7671L94.5049 60.9811V62.9846Z" fill="#3D2547"/>
<path d="M273.05 402.65L271.99 396.42L296.67 392.24L297.94 398C297.94 398 303.05 415.21 297.94 417.69C292.83 420.19 259.76 419.24 257.74 417.69C255.72 416.16 273.05 402.64 273.05 402.64V402.65Z" fill="white"/>
<path d="M285.21 282.28L308.08 386.05C308.08 386.05 287.11 402.65 257.58 393.97C239.84 346.66 216.77 279.41 232.85 275.46C248.93 271.52 279.58 273.3 279.58 273.3L285.21 282.28Z" fill="#A6D6EA"/>
<path d="M252.31 398C252.31 398 257.44 415.21 252.31 417.69C247.2 420.19 206.47 419.24 204.45 417.69C202.43 416.16 227.42 402.64 227.42 402.64V398.9C227.42 398.9 236.28 400.75 252.31 398Z" fill="white"/>
<path d="M294.38 229.86C294.38 229.86 207.55 237.1 197.87 259.68C188.19 282.26 216.68 395.12 216.68 395.12C216.68 395.12 241.42 409.3 268.84 389.8C261.31 362.93 240.24 282.31 241.85 279.62C243.46 276.94 374.1 283.89 389.47 275.28C404.86 266.68 398.94 238.73 388.73 227.44C372.07 216.15 329.05 241.96 294.37 229.86H294.38Z" fill="#C2E9FB"/>
<path d="M314.54 90.3398C314.54 90.3398 300.97 94.3698 299.28 103.24C297.6 112.11 276.63 176.45 191.14 178.95C191.14 178.95 187.11 186.31 191.14 191.95C196.79 198.4 251.13 215.34 298.16 195.18C299.27 222.6 294.37 229.86 294.37 229.86C294.37 229.86 323.42 248.41 358.1 244.38C392.76 240.35 389.39 230.67 389.39 230.67C389.39 230.67 387.87 132.82 377.81 114.4C365.34 95.1698 337.92 82.2698 314.53 90.3298L314.54 90.3398Z" fill="white"/>
<path d="M299.78 43.1199C299.78 43.1199 293.76 85.6099 323.78 80.1699C353.25 69.3599 348.94 53.2299 348.94 53.2299L329.05 32.2599C329.05 32.2599 301.68 19.5499 299.77 43.1199H299.78Z" fill="#FCECDE"/>
<path d="M341.43 0.0100002C324.22 0.0100002 295.18 2.16 298.41 38.72C300.56 48.4 304.86 49.2 306.48 38.72C309.71 49.2 323.42 60.5 330.68 53.24C330.68 47.59 341.7 48.97 343.05 54.72C344.39 60.49 337.13 69.37 329.07 65.33C327.46 75.81 321.81 85.49 314.55 90.33C325.84 89.52 333.91 102.43 332.29 114.53C335.52 127.43 381.49 119.37 385.52 107.27C389.55 95.17 397.62 17.75 364.55 5.65C354.87 -4.76837e-07 341.44 0 341.44 0L341.43 0.0100002Z" fill="#ADA16E"/>
<path d="M191.14 178.95C191.14 178.95 164.53 173.13 161.83 184.95C172.59 184.95 189.4 184.95 189.4 184.95L191.14 178.95Z" fill="#FCECDE"/>
<path d="M428.26 108.89C435.05 118.12 441.97 233.09 428.26 243.58C414.55 254.07 329.88 250.03 325.85 243.58C321.8 237.13 308.9 113.73 325.85 105.67C337.58 100.07 417.78 94.6399 428.26 108.9V108.89Z" fill="#4B6075"/>
<path opacity="0.5" d="M325.84 105.66C325.84 105.66 336.58 103.24 337.65 116.68C338.73 130.12 357.57 253.25 325.84 243.58C321.79 237.13 308.89 113.73 325.84 105.67V105.66Z" fill="#0F0D12"/>
<path d="M423.82 274.36C426.24 277.51 433.09 295.59 419.79 296.8C406.49 298.01 266.96 305.01 262.92 302.72C258.89 300.43 256.48 280.67 264.53 278.25C272.6 275.83 421.4 271.22 423.82 274.36Z" fill="#4B6075"/>
<path opacity="0.5" d="M264.53 278.25C267.22 277.44 285.56 276.4 308.89 275.46C308.91 275.48 321.39 291.15 308.89 302.24C283.99 303.16 264.4 303.56 262.92 302.72C258.89 300.43 256.48 280.67 264.53 278.25Z" fill="#0F0D12"/>
<path d="M339.15 301.01C339.15 301.01 339.15 335.92 339.15 338.74C339.15 341.56 343.47 343.98 343.47 343.98H359.16C359.16 343.98 362.52 342.77 362.52 339.54C362.52 336.31 362.52 299.62 362.52 299.62C362.52 299.62 345.2 296.76 339.15 301.01Z" fill="#4B6075"/>
<path d="M359.17 343.98V398.02C359.17 398.02 348.6 400.04 343.48 398.02C343.48 377.86 343.48 343.98 343.48 343.98H359.17Z" fill="#4B6075"/>
<path d="M299.07 409.31C299.07 406.49 323.17 396 351.32 396C379.47 396 406.79 406.9 404.4 409.31C391.56 409.31 299.07 409.31 299.07 409.31Z" fill="#32404D"/>
<path d="M300.15 417.7C300.15 421.46 303.2 424.49 306.94 424.49C310.68 424.49 313.73 421.46 313.73 417.7C313.73 413.96 310.7 410.93 306.94 410.93C303.18 410.93 300.15 413.96 300.15 417.7Z" fill="#281830"/>
<path d="M390.12 417.7C390.12 421.46 393.17 424.49 396.91 424.49C400.67 424.49 403.7 421.46 403.7 417.7C403.7 413.96 400.67 410.93 396.91 410.93C393.17 410.93 390.12 413.96 390.12 417.7Z" fill="#281830"/>
<path d="M344.52 417.7C344.52 421.46 347.57 424.49 351.31 424.49C355.05 424.49 358.1 421.46 358.1 417.7C358.1 413.96 355.07 410.93 351.31 410.93C347.55 410.93 344.52 413.96 344.52 417.7Z" fill="#281830"/>
<path opacity="0.5" d="M339.15 301.01C339.15 301.01 339.15 335.92 339.15 338.74C339.15 341.56 343.47 343.98 343.47 343.98H359.16C359.16 343.98 362.52 342.77 362.52 339.54C362.52 336.31 362.52 299.62 362.52 299.62C362.52 299.62 345.2 296.76 339.15 301.01Z" fill="#191824"/>
<path d="M400.48 209.7C408.06 213.76 403.75 291.46 395.19 300.03C384.43 310.77 362.93 308.1 359.17 300.03C362.93 297.87 374.41 302.08 373.51 248.9C372.07 220.45 371.53 210.77 374.22 209.7C376.91 208.63 394.48 206.47 400.48 209.7Z" fill="#BAC9CE"/>
<path opacity="0.5" d="M359.17 300.03C362.93 297.87 374.41 302.08 373.51 248.9C372.07 220.45 371.53 210.77 374.22 209.7C375.2 209.3 378.17 208.76 381.82 208.39C381.79 241.55 391.48 309.35 362.43 303.57C360.95 302.57 359.8 301.36 359.17 300.02V300.03Z" fill="#4B6075"/>
</svg>
