<?xml version="1.0"?>
<svg width="499.999" height="500" xmlns="http://www.w3.org/2000/svg" xmlns:svg="http://www.w3.org/2000/svg" enable-background="new 0 0 499.999 500" version="1.1" xml:space="preserve">
 <g class="layer">
  <title>Layer 1</title>
  <g id="svg_73"/>
  <g id="svg_114">
   <ellipse cx="247.86" cy="450.62" fill="#BAC9CE" id="SHADOW" opacity="0.5" rx="235.5" ry="24.6"/>
   <g id="MINI_CABINET">
    <g id="svg_4">
     <path d="m263.18,209.88c0,3.55 -2.9,6.45 -6.45,6.45l-81.46,0c-3.55,0 -6.45,-2.9 -6.45,-6.45l0,-81.73c0,-3.55 2.9,-6.45 6.45,-6.45l81.46,0c3.55,0 6.45,2.9 6.45,6.45l0,81.73z" fill="#BAC9CE" id="svg_5"/>
    </g>
    <path d="m256.73,121.72l-40.73,0l0,94.62l40.73,0c3.55,0 6.45,-2.9 6.45,-6.45l0,-81.73c0,-3.55 -2.9,-6.44 -6.45,-6.44z" fill="#4b6075" id="svg_6"/>
    <rect fill="#4B6075" height="18.95" id="svg_7" opacity="0.5" width="33.87" x="175.27" y="128.16"/>
    <rect fill="#4B6075" height="18.95" id="svg_8" opacity="0.5" width="33.87" x="175.27" y="151.77"/>
    <rect fill="#4B6075" height="18.95" id="svg_9" width="33.87" x="175.07" y="175.46"/>
    <rect fill="#4B6075" height="11.88" id="svg_10" width="33.87" x="175.27" y="198.46"/>
   </g>
   <g id="DESK_1_">
    <g id="svg_11">
     <g id="svg_12">
      <path d="m410.77,425.03c0,3.55 -2.9,6.45 -6.45,6.45l-95.17,0c-3.55,0 -6.45,-2.9 -6.45,-6.45l0,-105.99c0,-3.55 2.9,-6.45 6.45,-6.45l95.17,0c3.55,0 6.45,2.9 6.45,6.45l0,105.99z" fill="#BAC9CE" id="svg_13"/>
     </g>
     <g id="svg_14" opacity="0.5">
      <path d="m356.74,425.03c0,3.55 2.9,6.45 6.45,6.45l41.13,0c3.55,0 6.45,-2.9 6.45,-6.45l0,-105.99c0,-3.55 -2.9,-6.45 -6.45,-6.45l-41.13,0c-3.55,0 -6.45,2.9 -6.45,6.45l0,105.99z" fill="#4B6075" id="svg_15"/>
     </g>
     <rect fill="#4B6075" height="42.21" id="svg_16" opacity="0.5" width="38.98" x="309.69" y="320.65"/>
     <rect fill="#4B6075" height="56.46" id="svg_17" opacity="0.3" width="38.98" x="309.69" y="369.31"/>
     <path d="m344.64,417.56c0,2.31 -1.87,4.18 -4.16,4.18c-2.31,0 -4.18,-1.87 -4.18,-4.18c0,-2.31 1.87,-4.16 4.18,-4.16c2.29,0 4.16,1.87 4.16,4.16z" fill="#c4daff" id="svg_18"/>
     <rect fill="#4B6075" height="3.32" id="svg_19" opacity="0.5" width="31.05" x="313.59" y="372.03"/>
     <rect fill="#4B6075" height="3.32" id="svg_20" opacity="0.5" width="31.05" x="313.59" y="378.35"/>
    </g>
    <g id="DESK">
     <rect fill="#c2e9fb" height="13.44" id="svg_21" width="183.08" x="268.02" y="216.34"/>
     <rect fill="#c2e9fb" height="13.44" id="svg_22" width="50" x="401.1" y="216.34"/>
     <rect fill="#c2e9fb" height="219.3" id="svg_23" width="6.18" x="426.1" y="229.78"/>
     <polygon fill="#c2e9fb" id="svg_24" points="426.0979919433594,431.4852294921875 294.0099182128906,431.4852294921875 294.0099182128906,438.059814453125 302.7024230957031,438.059814453125 302.7024230957031,449.0832214355469 308.8851318359375,449.0832214355469 308.8851318359375,438.059814453125 426.0979919433594,438.059814453125 "/>
     <rect fill="#c2e9fb" height="11.02" id="svg_25" width="6.18" x="334.36" y="438.06"/>
     <rect fill="#c2e9fb" height="219.3" id="svg_26" width="6.18" x="387.66" y="229.78"/>
    </g>
    <g id="svg_27">
     <g id="svg_28">
      <path d="m455.23,145.62c0,3.55 -2.9,6.45 -6.45,6.45l-21.07,0c-3.55,0 -6.45,-2.9 -6.45,-6.45l0,-105.99c0,-3.55 2.9,-6.45 6.45,-6.45l21.07,0c3.55,0 6.45,2.9 6.45,6.45l0,105.99z" fill="#c2e9fb" id="svg_29"/>
     </g>
     <g id="svg_30">
      <path d="m443.94,144.12c0,4.37 -3.58,7.95 -7.97,7.95l-148.88,0c-4.37,0 -7.97,-3.58 -7.97,-7.95l0,-102.97c0,-4.39 3.6,-7.97 7.97,-7.97l148.88,0c4.39,0 7.97,3.58 7.97,7.97l0,102.97z" fill="#a1c4fd" id="svg_31"/>
     </g>
     <g id="svg_32">
      <path d="m437.79,139.72c0,4.03 -3.31,7.34 -7.34,7.34l-137.85,0c-4.03,0 -7.34,-3.31 -7.34,-7.34l0,-94.18c0,-4.03 3.31,-7.32 7.34,-7.32l137.85,0c4.03,0 7.34,3.29 7.34,7.32l0,94.18z" fill="#FFFFFF" id="svg_33"/>
     </g>
     <rect fill="#a1c4fd" height="64.26" id="svg_34" width="12.14" x="361.53" y="152.08"/>
     <rect fill="#c2e9fb" height="64.26" id="svg_35" width="4.84" x="370.45" y="152.08"/>
     <rect fill="#a1c4fd" height="7.44" id="svg_36" width="61.83" x="336.04" y="208.9"/>
     <rect fill="#c2e9fb" height="7.44" id="svg_37" width="18.28" x="379.59" y="208.9"/>
     <rect fill="#281830" height="2.76" id="svg_38" opacity="0.5" width="13.76" x="361.53" y="152.08"/>
    </g>
   </g>
   <g id="PROGRAMMER">
    <path d="m210.31,434.03l1.06,-6.23l-24.68,-4.18l-1.27,5.76c0,0 -5.11,17.21 0,19.69c5.11,2.5 38.18,1.55 40.2,0c2.02,-1.53 -15.31,-15.05 -15.31,-15.05l0,0.01z" fill="#4B6075" id="svg_39"/>
    <path d="m198.15,313.66l-22.87,103.77c0,0 20.97,16.6 50.5,7.92c17.74,-47.31 40.81,-114.56 24.73,-118.51c-16.08,-3.94 -46.73,-2.16 -46.73,-2.16l-5.63,8.98z" fill="#a1c4fd" id="svg_40"/>
    <path d="m231.05,429.38c0,0 -5.13,17.21 0,19.69c5.11,2.5 45.84,1.55 47.86,0c2.02,-1.53 -22.97,-15.05 -22.97,-15.05l0,-3.74c0,0 -8.86,1.85 -24.89,-0.9z" fill="#4B6075" id="svg_41"/>
    <path d="m188.98,261.24c0,0 86.83,7.24 96.51,29.82s-18.81,135.44 -18.81,135.44s-24.74,14.18 -52.16,-5.32c7.53,-26.87 28.6,-107.49 26.99,-110.18c-1.61,-2.68 -132.25,4.27 -147.62,-4.34c-15.39,-8.6 -9.47,-36.55 0.74,-47.84c16.66,-11.29 59.68,14.52 94.36,2.42l-0.01,0z" fill="#c2e9fb" id="svg_42"/>
    <path d="m168.82,121.72c0,0 13.57,4.03 15.26,12.9c1.68,8.87 22.65,73.21 108.14,75.71c0,0 4.03,7.36 0,13c-5.65,6.45 -59.99,23.39 -107.02,3.23c-1.11,27.42 3.79,34.68 3.79,34.68s-29.05,18.55 -63.73,14.52c-34.66,-4.03 -31.29,-13.71 -31.29,-13.71s1.52,-97.85 11.58,-116.27c12.47,-19.23 39.89,-32.13 63.28,-24.07l-0.01,0.01z" fill="#FFFFFF" id="svg_43"/>
    <path d="m183.58,74.5c0,0 6.02,42.49 -24,37.05c-29.47,-10.81 -25.16,-26.94 -25.16,-26.94l19.89,-20.97c0,0 27.37,-12.71 29.28,10.86l-0.01,0z" fill="#fcecde" id="svg_44"/>
    <path d="m141.93,31.39c17.21,0 46.25,2.15 43.02,38.71c-2.15,9.68 -6.45,10.48 -8.07,0c-3.23,10.48 -16.94,21.78 -24.2,14.52c0,-5.65 -11.02,-4.27 -12.37,1.48c-1.34,5.77 5.92,14.65 13.98,10.61c1.61,10.48 7.26,20.16 14.52,25c-11.29,-0.81 -19.36,12.1 -17.74,24.2c-3.23,12.9 -49.2,4.84 -53.23,-7.26s-12.1,-89.52 20.97,-101.62c9.68,-5.65 23.11,-5.65 23.11,-5.65l0.01,0.01z" fill="#bfb16e" id="svg_45"/>
    <path d="m292.22,210.33c0,0 26.61,-5.82 29.31,6c-10.76,0 -27.57,0 -27.57,0l-1.74,-6z" fill="#fcecde" id="svg_46"/>
   </g>
   <text fill="#3D2547" font-family="&#x27;BebasKai&#x27;" font-size="21.86px" id="svg_72" transform="matrix(1.61301, 0, 0, 1.61301, 98.7827, 201.804)" x="149.01" y="-58.06">&lt;/&gt;</text>
   <g id="svg_105">
    <path d="m210.31,434.03l1.06,-6.23l-24.68,-4.18l-1.27,5.76c0,0 -5.11,17.21 0,19.69c5.11,2.5 38.18,1.55 40.2,0c2.02,-1.53 -15.31,-15.05 -15.31,-15.05l0,0.01z" fill="#ffffff" id="svg_106"/>
    <path d="m198.15,313.66l-22.87,103.77c0,0 20.97,16.6 50.5,7.92c17.74,-47.31 40.81,-114.56 24.73,-118.51c-16.08,-3.94 -46.73,-2.16 -46.73,-2.16l-5.63,8.98z" fill="#a6d6ea" id="svg_107"/>
    <path d="m231.05,429.38c0,0 -5.13,17.21 0,19.69c5.11,2.5 45.84,1.55 47.86,0c2.02,-1.53 -22.97,-15.05 -22.97,-15.05l0,-3.74c0,0 -8.86,1.85 -24.89,-0.9z" fill="#ffffff" id="svg_108"/>
    <path d="m188.98,261.24c0,0 86.83,7.24 96.51,29.82s-18.81,135.44 -18.81,135.44s-24.74,14.18 -52.16,-5.32c7.53,-26.87 28.6,-107.49 26.99,-110.18c-1.61,-2.68 -132.25,4.27 -147.62,-4.34c-15.39,-8.6 -9.47,-36.55 0.74,-47.84c16.66,-11.29 59.68,14.52 94.36,2.42l-0.01,0z" fill="#c2e9fb" id="svg_109"/>
    <path d="m168.82,121.72c0,0 13.57,4.03 15.26,12.9c1.68,8.87 22.65,73.21 108.14,75.71c0,0 4.03,7.36 0,13c-5.65,6.45 -59.99,23.39 -107.02,3.23c-1.11,27.42 3.79,34.68 3.79,34.68s-29.05,18.55 -63.73,14.52c-34.66,-4.03 -31.29,-13.71 -31.29,-13.71s1.52,-97.85 11.58,-116.27c12.47,-19.23 39.89,-32.13 63.28,-24.07l-0.01,0.01z" fill="#FFFFFF" id="svg_110"/>
    <path d="m183.58,74.5c0,0 6.02,42.49 -24,37.05c-29.47,-10.81 -25.16,-26.94 -25.16,-26.94l19.89,-20.97c0,0 27.37,-12.71 29.28,10.86l-0.01,0z" fill="#fcecde" id="svg_111"/>
    <path d="m141.93,31.39c17.21,0 46.25,2.15 43.02,38.71c-2.15,9.68 -6.45,10.48 -8.07,0c-3.23,10.48 -16.94,21.78 -24.2,14.52c0,-5.65 -11.02,-4.27 -12.37,1.48c-1.34,5.77 5.92,14.65 13.98,10.61c1.61,10.48 7.26,20.16 14.52,25c-11.29,-0.81 -19.36,12.1 -17.74,24.2c-3.23,12.9 -49.2,4.84 -53.23,-7.26s-12.1,-89.52 20.97,-101.62c9.68,-5.65 23.11,-5.65 23.11,-5.65l0.01,0.01z" fill="#ada16e" id="svg_112"/>
    <path d="m292.22,210.33c0,0 26.61,-5.82 29.31,6c-10.76,0 -27.57,0 -27.57,0l-1.74,-6z" fill="#fcecde" id="svg_113"/>
   </g>
   <g id="CHAIRV">
    <path d="m55.1,140.27c-6.79,9.23 -13.71,124.2 0,134.69s98.38,6.45 102.41,0c4.05,-6.45 16.95,-129.85 0,-137.91c-11.73,-5.6 -91.93,-11.03 -102.41,3.23l0,-0.01z" fill="#4B6075" id="svg_47"/>
    <path d="m157.52,137.04c0,0 -10.74,-2.42 -11.81,11.02c-1.08,13.44 -19.92,136.57 11.81,126.9c4.05,-6.45 16.95,-129.85 0,-137.91l0,-0.01z" fill="#0f0d12" id="svg_48" opacity="0.5"/>
    <path d="m59.54,305.74c-2.42,3.15 -9.27,21.23 4.03,22.44s152.83,8.21 156.87,5.92c4.03,-2.29 6.44,-22.05 -1.61,-24.47c-8.07,-2.42 -156.87,-7.03 -159.29,-3.89z" fill="#4B6075" id="svg_49"/>
    <path d="m218.83,309.63c-2.69,-0.81 -21.03,-1.85 -44.36,-2.79c-0.02,0.02 -12.5,15.69 0,26.78c24.9,0.92 44.49,1.32 45.97,0.48c4.03,-2.29 6.44,-22.05 -1.61,-24.47z" fill="#0f0d12" id="svg_50" opacity="0.5"/>
    <path d="m144.21,332.39c0,0 0,34.91 0,37.73s-4.32,5.24 -4.32,5.24l-15.69,0c0,0 -3.36,-1.21 -3.36,-4.44s0,-39.92 0,-39.92s17.32,-2.86 23.37,1.39z" fill="#4B6075" id="svg_51"/>
    <path d="m124.19,375.36l0,54.04c0,0 10.57,2.02 15.69,0c0,-20.16 0,-54.04 0,-54.04l-15.69,0z" fill="#4B6075" id="svg_52"/>
    <path d="m184.29,440.69c0,-2.82 -24.1,-13.31 -52.25,-13.31c-28.15,0 -55.47,10.9 -53.08,13.31c12.84,0 105.33,0 105.33,0z" fill="#32404D" id="svg_53"/>
    <path d="m183.21,449.08c0,3.76 -3.05,6.79 -6.79,6.79s-6.79,-3.03 -6.79,-6.79c0,-3.74 3.03,-6.77 6.79,-6.77s6.79,3.03 6.79,6.77z" fill="#281830" id="svg_54"/>
    <path d="m93.24,449.08c0,3.76 -3.05,6.79 -6.79,6.79c-3.76,0 -6.79,-3.03 -6.79,-6.79c0,-3.74 3.03,-6.77 6.79,-6.77c3.74,0 6.79,3.03 6.79,6.77z" fill="#281830" id="svg_55"/>
    <path d="m138.84,449.08c0,3.76 -3.05,6.79 -6.79,6.79s-6.79,-3.03 -6.79,-6.79c0,-3.74 3.03,-6.77 6.79,-6.77s6.79,3.03 6.79,6.77z" fill="#281830" id="svg_56"/>
    <path d="m144.21,332.39c0,0 0,34.91 0,37.73s-4.32,5.24 -4.32,5.24l-15.69,0c0,0 -3.36,-1.21 -3.36,-4.44s0,-39.92 0,-39.92s17.32,-2.86 23.37,1.39z" fill="#191824" id="svg_57" opacity="0.5"/>
    <path d="m82.88,241.08c-7.58,4.06 -3.27,81.76 5.29,90.33c10.76,10.74 32.26,8.07 36.02,0c-3.76,-2.16 -15.24,2.05 -14.34,-51.13c1.44,-28.45 1.98,-38.13 -0.71,-39.2s-20.26,-3.23 -26.26,0z" fill="#BAC9CE" id="svg_58"/>
    <path d="m124.19,331.41c-3.76,-2.16 -15.24,2.05 -14.34,-51.13c1.44,-28.45 1.98,-38.13 -0.71,-39.2c-0.98,-0.4 -3.95,-0.94 -7.6,-1.31c0.03,33.16 -9.66,100.96 19.39,95.18c0,0 0,0 0,0c1.48,-1 2.63,-2.21 3.26,-3.55l0,0.01z" fill="#4B6075" id="svg_59" opacity="0.5"/>
   </g>
  </g>
 </g>

</svg>