<svg xmlns="http://www.w3.org/2000/svg">
    <g id="js">
        <path d="M0 0H115.49V120H0V0Z" fill="#F7DF1E"/>
        <path d="M30.3652 100.28L39.2033 94.7229C40.9084 97.864 42.4594 100.522 46.1798 100.522C49.7461 100.522 51.9945 99.0722 51.9945 93.4341V55.0913H62.8477V93.5935C62.8477 105.274 56.2585 110.59 46.6451 110.59C37.963 110.59 32.9234 105.919 30.3652 100.28Z" fill="black"/>
        <path d="M68.745 99.0724L77.582 93.756C79.9083 97.7034 82.9318 100.603 88.2807 100.603C92.7776 100.603 95.6453 98.2669 95.6453 95.0448C95.6453 91.1783 92.6996 89.8088 87.7379 87.5541L85.0253 86.345C77.1949 82.8819 72.0005 78.5322 72.0005 69.3492C72.0005 60.8913 78.2024 54.4469 87.8933 54.4469C94.793 54.4469 99.7545 56.9442 103.32 63.469L94.87 69.1072C93.0094 65.6438 90.9943 64.2747 87.8935 64.2747C84.7149 64.2747 82.6992 66.369 82.6992 69.1072C82.6992 72.4905 84.7149 73.8602 89.3659 75.9547L92.079 77.1629C101.305 81.2712 106.499 85.4594 106.499 94.8836C106.499 105.034 98.824 110.591 88.5135 110.591C78.4354 110.591 71.923 105.597 68.745 99.0724Z" fill="black"/>
    </g>

    <g id="ts">
        <path d="M0 120H120V0H0V120Z" fill="#007ACC"/>
        <path d="M26.5374 60.3979L26.4993 65.3122H42.1183V109.693H53.166V65.3122H68.785V60.4931C68.785 57.8265 68.7279 55.5979 68.6517 55.5407C68.5945 55.4646 59.0898 55.4265 47.566 55.4455L26.5945 55.5026L26.5374 60.3979Z" fill="white"/>
        <path d="M96.8264 55.3637C99.874 56.1256 102.198 57.478 104.331 59.6875C105.436 60.8684 107.074 63.0208 107.207 63.5351C107.245 63.6875 102.026 67.1922 98.8645 69.1541C98.7502 69.2303 98.2931 68.7351 97.7788 67.9732C96.2359 65.7256 94.6169 64.7541 92.1407 64.5827C88.5026 64.3351 86.1597 66.2399 86.1788 69.4208C86.1788 70.3541 86.3121 70.9065 86.6931 71.6684C87.4931 73.3256 88.9788 74.316 93.6454 76.3351C102.236 80.0303 105.912 82.4684 108.198 85.9351C110.75 89.8018 111.322 95.9732 109.588 100.564C107.684 105.554 102.96 108.945 96.3121 110.068C94.255 110.43 89.3788 110.373 87.1693 109.973C82.3502 109.116 77.7788 106.735 74.9597 103.611C73.855 102.392 71.7026 99.2113 71.8359 98.9827C71.8931 98.9065 72.3883 98.6018 72.9407 98.278C73.474 97.9732 75.4931 96.8113 77.3978 95.7065L80.8454 93.7065L81.5693 94.7732C82.5788 96.316 84.7883 98.4303 86.1216 99.1351C89.9502 101.154 95.2073 100.868 97.7978 98.5446C98.9026 97.5351 99.3597 96.4875 99.3597 94.9446C99.3597 93.5541 99.1883 92.9446 98.4645 91.897C97.5312 90.5637 95.6264 89.4399 90.2169 87.097C84.0264 84.4303 81.3597 82.7732 78.9216 80.1446C77.5121 78.6208 76.1788 76.1827 75.6264 74.1446C75.1693 72.4494 75.055 68.2018 75.4169 66.4875C76.6931 60.5065 81.2073 56.3351 87.7216 55.097C89.8359 54.697 94.7502 54.8494 96.8264 55.3637Z" fill="white"/>
    </g>

    <g id="mongo">
        <path d="M50.3911 47.7544C44.3708 19.869 31.8067 12.4436 28.6185 7.19463C26.8857 4.33931 25.1189 0 25.1189 0C24.9461 2.47333 24.6399 4.03976 22.6296 5.91949C18.6039 9.68719 1.49573 24.3238 0.0587112 56.0098C-1.28146 85.5523 20.7372 103.772 23.6635 105.655C25.8989 106.809 28.6368 105.677 29.9456 104.619C40.5571 96.9681 55.0738 76.5686 50.378 47.7544" fill="#10AA50"/>
        <path d="M26.0308 89.919C25.4785 97.2345 25.0807 101.491 23.675 105.663C23.675 105.663 24.6017 112.624 25.2456 120H27.5411C28.0891 114.805 28.9255 109.648 30.0461 104.556C27.0726 103.025 26.1434 96.3359 26.0308 89.919Z" fill="#B8C4C2"/>
        <path d="M30.0444 104.561C27.0395 103.104 26.1705 96.2808 26.037 89.9189C26.7773 79.43 26.9914 68.9075 26.6783 58.395C26.5212 52.8795 26.7568 7.30159 25.3852 0.629109C25.9401 1.93448 27.2803 5.0014 28.6205 7.19166C31.8217 12.4434 44.3753 19.8688 50.3904 47.7569C55.0784 76.497 40.648 96.8607 30.0444 104.561Z" fill="#12924F"/>
    </g>

    <g id="pgsql">
        <path d="M116.086 71.8826C115.386 69.7638 113.554 68.2881 111.184 67.9339C110.066 67.7671 108.787 67.8382 107.272 68.1504C104.632 68.695 102.674 68.9024 101.245 68.9425C106.64 59.8342 111.026 49.4475 113.552 39.6702C117.635 23.8605 115.453 16.6581 112.903 13.4004C106.155 4.77748 96.309 0.145172 84.431 0.00343171C78.0947 -0.0740469 72.5322 1.177 69.6304 2.07667C66.9286 1.59995 64.0236 1.33378 60.9755 1.28456C55.2617 1.19341 50.2133 2.43899 45.8996 4.99898C43.5114 4.19138 39.6785 3.0529 35.2522 2.32642C24.8418 0.617336 16.4513 1.94906 10.3141 6.28467C2.88255 11.5341 -0.562518 20.6547 0.0746296 33.3931C0.276985 37.4374 2.53936 49.7429 6.10155 61.413C8.14881 68.1208 10.3319 73.691 12.5902 77.9706C15.7928 84.039 19.2196 87.6126 23.0666 88.896C25.2228 89.6143 29.1405 90.1174 33.261 86.6856C33.7833 87.3182 34.4801 87.9467 35.4049 88.5305C36.5794 89.2711 38.0154 89.8763 39.4497 90.235C44.6184 91.5271 49.4599 91.2039 53.5905 89.3928C53.616 90.1274 53.6356 90.8293 53.652 91.4355C53.6793 92.4185 53.7067 93.3825 53.7427 94.284C53.9874 100.379 54.4022 105.119 55.6309 108.435C55.6983 108.617 55.789 108.895 55.8847 109.19C56.4977 111.067 57.5227 114.209 60.1306 116.669C62.8309 119.218 66.0973 120 69.0889 120C70.5893 120 72.0208 119.803 73.2764 119.534C77.7519 118.575 82.835 117.114 86.512 111.878C89.9885 106.928 91.6785 99.4736 91.9843 87.7274C92.0239 87.3952 92.0604 87.078 92.0955 86.7758L92.1684 86.1551L92.9874 86.2271L93.1984 86.2412C97.7569 86.449 103.331 85.4824 106.754 83.8922C109.459 82.6371 118.127 78.0608 116.086 71.8826Z" fill="black"/>
        <path d="M108.292 73.084C94.7382 75.8801 93.8062 71.291 93.8062 71.291C108.117 50.056 114.1 23.1012 108.937 16.5041C94.8526 -1.49143 70.4719 7.01936 70.0649 7.23995L69.9341 7.26365C67.2561 6.70763 64.2595 6.37675 60.891 6.3216C54.7583 6.22133 50.106 7.92951 46.5757 10.6066C46.5757 10.6066 3.08285 -7.31099 5.10595 33.141C5.53619 41.7466 17.4405 98.2563 31.6392 81.1878C36.8289 74.9462 41.8436 69.669 41.8436 69.669C44.3338 71.3234 47.3154 72.1675 50.441 71.8644L50.6839 71.6584C50.6082 72.4332 50.6429 73.1911 50.781 74.0885C47.1231 78.1752 48.1982 78.8926 40.886 80.398C33.4868 81.9229 37.8334 84.6374 40.6714 85.3475C44.1119 86.2075 52.0712 87.4262 57.4491 79.8976L57.2349 80.7567C58.6678 81.9047 59.6741 88.2233 59.5055 93.9517C59.3369 99.6797 59.2243 103.612 60.3532 106.684C61.483 109.756 62.6083 116.668 72.2211 114.608C80.2529 112.887 84.4153 108.426 84.9946 100.985C85.4052 95.6959 86.3354 96.478 86.3938 91.7486L87.1398 89.5099C87.9998 82.3395 87.2766 80.0261 92.2247 81.1021L93.4279 81.2079C97.0694 81.3733 101.837 80.6217 104.634 79.3215C110.659 76.5259 114.233 71.8576 108.292 73.084Z" fill="#336791"/>
        <path d="M49.1222 36.9892C47.9008 36.8192 46.7947 36.9765 46.235 37.4003C45.9205 37.6387 45.823 37.9149 45.7966 38.1049C45.7264 38.6085 46.0792 39.1654 46.2961 39.4526C46.9095 40.2656 47.8056 40.8244 48.6925 40.9475C48.821 40.9657 48.9491 40.9739 49.0762 40.9739C50.5551 40.9739 51.9001 39.8222 52.0186 38.9722C52.1667 37.9076 50.6212 37.1975 49.1222 36.9892Z" fill="white"/>
        <path d="M89.5837 37.0233C89.467 36.1888 87.9822 35.9509 86.573 36.1469C85.1656 36.3429 83.8011 36.9782 83.915 37.8145C84.0062 38.4649 85.1806 39.5751 86.5707 39.5751C86.6883 39.5751 86.8068 39.5674 86.9262 39.5505C87.8541 39.422 88.535 38.8327 88.8586 38.4931C89.3508 37.9754 89.6361 37.3984 89.5837 37.0233Z" fill="white"/>
        <path d="M112.803 72.7665C112.286 71.2037 110.623 70.701 107.859 71.2716C99.6531 72.9652 96.7144 71.7921 95.7495 71.0815C102.128 61.3648 107.375 49.6191 110.206 38.6604C111.547 33.4693 112.287 28.6483 112.348 24.7188C112.415 20.406 111.68 17.2367 110.165 15.3006C104.057 7.49578 95.0923 3.3092 84.2408 3.19435C76.7805 3.11049 70.4774 5.01965 69.2555 5.55653C66.6823 4.91665 63.8771 4.52379 60.8231 4.47365C55.2228 4.38296 50.3817 5.72379 46.3738 8.45697C44.6328 7.80888 40.1336 6.26432 34.6312 5.37787C25.1187 3.84653 17.5595 5.00689 12.1652 8.82841C5.72851 13.3887 2.75698 21.5404 3.3326 33.0564C3.5263 36.9308 5.73398 48.8497 9.21778 60.2642C13.8036 75.2877 18.7887 83.7926 24.0335 85.5422C24.6474 85.7469 25.3552 85.89 26.1359 85.89C28.0492 85.89 30.395 85.0277 32.8355 82.0935C35.8123 78.5225 38.8917 75.0381 42.0696 71.6449C44.1315 72.7514 46.3966 73.3694 48.7132 73.4314C48.7177 73.492 48.7237 73.5527 48.7291 73.6128C48.3304 74.0883 47.9399 74.5708 47.5578 75.0598C45.9527 77.0975 45.6186 77.5218 40.4517 78.5856C38.9819 78.8891 35.0783 79.6935 35.0209 82.4299C34.9589 85.4196 39.6354 86.6753 40.1682 86.8083C42.025 87.2732 43.8138 87.5024 45.5197 87.5024C49.6684 87.5024 53.3195 86.1388 56.2373 83.5005C56.1475 94.1588 56.5918 104.661 57.8716 107.861C58.9198 110.481 61.4803 116.883 69.5681 116.882C70.7549 116.882 72.0611 116.744 73.4981 116.436C81.9392 114.627 85.6048 110.896 87.0227 102.671C87.7815 98.2752 89.0836 87.7786 89.6962 82.1482C90.9887 82.5516 92.6527 82.7362 94.4515 82.7357C98.2033 82.7357 102.533 81.9386 105.247 80.6784C108.297 79.2619 113.801 75.7863 112.803 72.7665ZM92.7014 34.7199C92.6736 36.3821 92.4448 37.8911 92.2024 39.4662C91.9412 41.1602 91.6714 42.9117 91.6035 45.0378C91.5365 47.1069 91.7949 49.2581 92.0447 51.3386C92.5497 55.5407 93.0679 59.8668 91.0621 64.1354C90.7289 63.545 90.4321 62.9348 90.1733 62.3082C89.924 61.7039 89.3826 60.7331 88.6329 59.3896C85.7165 54.1593 78.887 41.9113 82.3831 36.9135C83.4245 35.4259 86.0674 33.8964 92.7014 34.7199ZM84.6601 6.56011C94.3832 6.77477 102.075 10.4122 107.52 17.3707C111.696 22.708 107.097 46.9939 93.7834 67.9455C93.6495 67.7752 93.5149 67.6055 93.3796 67.4364L93.211 67.2258C96.6515 61.5439 95.9788 55.9222 95.3799 50.938C95.1338 48.8926 94.9014 46.9606 94.9606 45.1458C95.0217 43.2225 95.276 41.5727 95.5221 39.9775C95.8243 38.0119 96.1319 35.9778 96.0471 33.5801C96.1105 33.3285 96.136 33.0314 96.1027 32.6786C95.8863 30.3793 93.2611 23.4978 87.9105 17.2695C84.9837 13.8627 80.7155 10.0503 74.8877 7.47891C77.3944 6.95935 80.8221 6.47488 84.6601 6.56011ZM30.2528 79.946C27.5638 83.1791 25.7071 82.5593 25.0963 82.356C21.1176 81.0289 16.5008 72.6193 12.4304 59.2838C8.90833 47.745 6.85013 36.1419 6.68697 32.8882C6.17288 22.5982 8.66723 15.4268 14.1012 11.573C22.9447 5.30176 37.4843 9.05537 43.3266 10.9591C43.2427 11.042 43.1552 11.1195 43.0723 11.2038C33.485 20.8859 33.7124 37.428 33.7361 38.4394C33.7352 38.8295 33.768 39.3819 33.8127 40.1416C33.9777 42.924 34.2848 48.1023 33.4645 53.9665C32.7025 59.416 34.3824 64.7497 38.0726 68.6004C38.4514 68.9948 38.8494 69.3702 39.2654 69.7252C37.6228 71.4844 34.0529 75.3748 30.2528 79.946ZM40.4977 66.2765C37.5235 63.1728 36.1726 58.8559 36.791 54.4314C37.657 48.2368 37.3375 42.8415 37.1657 39.9429C37.1415 39.5373 37.1201 39.1818 37.1078 38.9015C38.5083 37.6596 44.9988 34.1821 49.6274 35.2427C51.7394 35.7262 53.0265 37.1646 53.5615 39.6385C56.3307 52.4466 53.928 57.7848 51.9974 62.0749C51.5995 62.9586 51.2235 63.794 50.9026 64.6581L50.6538 65.3263C50.0239 67.0153 49.4378 68.5858 49.0746 70.0771C45.9126 70.0679 42.8367 68.7175 40.4977 66.2765ZM40.9831 83.5497C40.0597 83.3191 39.2294 82.9184 38.7421 82.5862C39.1491 82.3948 39.8733 82.1341 41.1294 81.8752C47.2078 80.6242 48.1467 79.7409 50.1967 77.1381C50.6666 76.5411 51.1993 75.8647 51.9372 75.0407L51.9381 75.0398C53.0369 73.8092 53.5396 74.018 54.4512 74.3963C55.1899 74.7016 55.9096 75.6277 56.2013 76.6468C56.3394 77.1281 56.4943 78.0414 55.9871 78.7524C51.7048 84.7483 45.4646 84.6713 40.9831 83.5497ZM72.7944 113.152C65.3583 114.745 62.7254 110.951 60.9904 106.614C59.8706 103.814 59.32 91.1863 59.7106 77.2415C59.7156 77.0561 59.6892 76.8769 59.6381 76.7083C59.5925 76.3753 59.523 76.046 59.4303 75.723C58.8497 73.6939 57.4345 71.9967 55.7368 71.293C55.0623 71.0136 53.8245 70.5009 52.3369 70.8815C52.6541 69.5744 53.2042 68.0982 53.8008 66.4998L54.051 65.8276C54.3327 65.0697 54.6863 64.2844 55.0601 63.4531C57.0804 58.9648 59.8473 52.8171 56.8443 38.9288C55.7195 33.7268 51.9632 31.1865 46.269 31.7767C42.8553 32.1299 39.732 33.5072 38.1743 34.297C37.8393 34.4665 37.533 34.6306 37.2468 34.7901C37.6816 29.5489 39.3241 19.7538 45.4687 13.5564C49.3376 9.65515 54.4899 7.72821 60.7675 7.83212C73.1367 8.03448 81.0687 14.3823 85.5451 19.6722C89.4027 24.2302 91.4914 28.822 92.325 31.2986C86.056 30.661 81.7924 31.8983 79.6312 34.9884C74.9292 41.7099 82.2035 54.7554 85.6996 61.0253C86.3409 62.1742 86.8942 63.1673 87.0683 63.5894C88.2068 66.3485 89.6807 68.1907 90.7567 69.5352C91.0867 69.9472 91.4066 70.3469 91.65 70.696C89.7513 71.2433 86.3409 72.5081 86.6517 78.8299C86.401 82.0019 84.6186 96.8532 83.713 102.1C82.5175 109.032 79.9667 111.614 72.7944 113.152ZM103.833 77.6321C101.892 78.5332 98.6427 79.209 95.5563 79.3544C92.1472 79.5139 90.4117 78.9725 90.0033 78.6394C89.8119 74.6998 91.2781 74.2883 92.8299 73.8525C93.0738 73.7842 93.3117 73.7172 93.5414 73.637C93.684 73.7532 93.8404 73.8685 94.0117 73.9815C96.7517 75.79 101.639 75.985 108.539 74.5608L108.614 74.5458C107.684 75.4158 106.091 76.5834 103.833 77.6321Z" fill="white"/>
    </g>

    <g id="jest">
        <path d="M101.852 59.0829C101.852 52.9145 96.8513 47.9135 90.6828 47.9135C90.2857 47.9135 89.8945 47.9347 89.5085 47.9756L104.85 2.72801H39.6545L54.9746 47.936C54.7485 47.9218 54.5221 47.9144 54.2956 47.9139C48.1271 47.9139 43.1261 52.914 43.1261 59.0834C43.1261 64.0694 46.394 68.291 50.9039 69.7273C48.5221 73.8532 45.5245 77.5697 42.1214 80.7807C37.4938 85.146 32.1977 88.4564 26.4697 90.496C19.6498 86.9925 16.4295 79.2011 19.3352 72.3698C19.6634 71.5981 19.9985 70.8162 20.3186 70.0377C25.2592 68.8846 28.9413 64.4555 28.9413 59.1633C28.9413 52.9944 23.9403 47.9939 17.7714 47.9939C11.6025 47.9939 6.60195 52.9944 6.60195 59.1633C6.60195 62.9461 8.48379 66.2876 11.361 68.3081C8.59646 74.6024 4.5326 81.1901 3.26642 88.8251C1.74895 97.9749 3.26131 107.688 11.1752 113.173C29.6058 125.947 49.6122 105.254 70.7062 100.052C78.3509 98.1671 86.7427 98.4707 93.4779 94.5701C98.5359 91.6406 101.871 86.7855 102.817 81.3351C103.752 75.9507 102.389 70.5896 99.2544 66.2425C100.936 64.2361 101.856 61.7008 101.852 59.0829Z" fill="#99425B"/>
        <path d="M100.129 80.8682C99.3079 85.6005 96.3852 89.7336 92.1113 92.2094C88.127 94.5169 83.3526 95.2057 78.2973 95.9344C75.5893 96.3247 72.7891 96.7291 70.0535 97.4034C62.8203 99.187 55.8142 102.667 49.0394 106.032C35.4805 112.767 23.771 118.583 12.73 110.931C4.64222 105.325 5.01552 94.9544 5.95772 89.2715C6.83104 84.006 9.19206 79.1569 11.4748 74.4676C11.8638 73.6706 12.2495 72.8721 12.6322 72.0721C13.7829 72.5321 14.9904 72.835 16.222 72.9726C13.8979 80.6424 17.5528 88.9819 25.2234 92.9225L26.2736 93.462L27.385 93.0662C33.4494 90.9063 39.0375 87.4411 43.9938 82.7645C47.1975 79.7419 49.9523 76.3979 52.2164 72.8247C52.9047 72.9285 53.5998 72.9807 54.2959 72.9807C61.3364 72.9807 67.1665 67.7174 68.0687 60.9197C70.9506 60.8142 74.0115 60.8134 76.9099 60.9188C77.8113 67.7174 83.6422 72.9811 90.6827 72.9811C93.6267 72.9811 96.3572 72.0585 98.6068 70.4913C100.168 73.6882 100.751 77.2852 100.129 80.8682ZM17.7722 50.7217C22.427 50.7217 26.2137 54.5088 26.2137 59.1637C26.2137 60.8355 25.723 62.3946 24.8807 63.7076C23.4776 65.896 21.0924 67.396 18.3521 67.5831C18.1604 67.5958 17.9669 67.6052 17.7722 67.6052C16.7347 67.6052 15.7411 67.416 14.8223 67.0724C12.9718 66.3766 11.4222 65.0568 10.4408 63.3406C9.71205 62.0692 9.32914 60.6291 9.33024 59.1637C9.33024 54.5088 13.1173 50.7217 17.7722 50.7217ZM45.8548 59.0833C45.8548 54.8541 48.9812 51.3425 53.0433 50.7353C53.4524 50.6737 53.8707 50.6418 54.2963 50.6418C57.0026 50.6418 59.4121 51.9237 60.9572 53.9102C61.3442 54.4055 61.6748 54.9424 61.9428 55.511C62.4675 56.6287 62.739 57.8485 62.7378 59.0833C62.7378 59.7581 62.6562 60.4141 62.5061 61.0434C61.6834 64.4873 58.7467 67.12 55.148 67.4823C54.8682 67.5104 54.5842 67.5248 54.2963 67.5248C52.6726 67.5262 51.0834 67.0563 49.7214 66.1723C47.3974 64.6668 45.8548 62.0523 45.8548 59.0833ZM81.0873 49.0448C79.2503 50.7983 77.9283 53.021 77.2645 55.4723C74.0827 55.355 70.8976 55.355 67.7158 55.4723C67.0015 52.8226 65.5211 50.4849 63.5291 48.7094L72.2644 31.0466L81.0873 49.0448ZM43.4598 5.45675H101.045L87.4437 45.5703C86.8586 45.7104 86.2832 45.8887 85.7213 46.1039L72.2857 18.6956L58.8117 45.9402C58.2244 45.7386 57.6241 45.5768 57.0149 45.4559L43.4598 5.45675ZM99.1242 59.0837C99.1242 59.9298 98.998 60.747 98.7654 61.5187C98.2136 63.3355 97.0677 64.9144 95.5115 66.0023C94.0971 66.9949 92.4107 67.5268 90.6827 67.5252C86.7851 67.5252 83.4972 64.8691 82.5303 61.2721C82.3384 60.5585 82.2411 59.8227 82.2412 59.0837C82.2412 57.9298 82.4742 56.8294 82.8952 55.8269C83.1124 55.3139 83.3798 54.8237 83.6936 54.3634C85.2128 52.121 87.7762 50.6422 90.6827 50.6422C90.9493 50.6422 91.2121 50.6558 91.4727 50.6805C95.7585 51.0797 99.1242 54.695 99.1242 59.0837ZM104.581 59.0837C104.581 52.2987 99.6919 46.6375 93.2529 45.4283L108.655 0H35.8499L51.2763 45.5201C45.061 46.9032 40.3989 52.4573 40.3989 59.0833C40.3989 64.0588 43.0282 68.4287 46.9688 70.8846C45.0733 73.7086 42.8259 76.366 40.2501 78.7963C36.165 82.6497 31.6143 85.5724 26.7082 87.4955C21.7663 84.3913 19.6774 78.537 21.8467 73.4374L22.3356 72.2877C27.7635 70.3943 31.6696 65.2284 31.6696 59.1637C31.6696 51.5002 25.4352 45.2658 17.7722 45.2658C10.1087 45.2658 3.87434 51.5002 3.87434 59.1637C3.87434 63.0315 5.46451 66.5342 8.02324 69.0563C7.54602 70.0674 7.06158 71.0751 6.56998 72.0793C4.23022 76.8843 1.5788 82.3304 0.575803 88.3786C-1.41574 100.39 1.79692 109.992 9.62234 115.415C14.3707 118.706 19.1931 120 24.0457 120C33.1828 120 42.4262 115.409 51.4668 110.919C57.9775 107.685 64.7103 104.341 71.3605 102.701C73.835 102.091 76.381 101.723 79.0766 101.335C84.4224 100.563 89.9497 99.7662 94.8461 96.9306C100.522 93.6431 104.407 88.1286 105.505 81.8019C106.448 76.3702 105.314 70.9301 102.546 66.316C103.879 64.1395 104.583 61.6364 104.581 59.0837Z" fill="white"/>
    </g>

    <g id="express">
        <path d="M37.2184 26.778V0.523827H38.6425V4.65363C38.8106 4.47051 38.9659 4.276 39.1073 4.07147C40.2967 1.60384 42.8053 0.0464776 45.5441 0.0772376C48.791 -0.0195993 51.4295 1.18232 52.98 4.07147C53.9667 5.86634 54.5097 7.87122 54.5636 9.9187C54.6175 11.9662 54.1808 13.9968 53.2899 15.8411C51.8453 19.0789 48.2772 20.6887 44.4572 20.0974C43.2684 19.9964 42.1239 19.5991 41.1281 18.942C40.1322 18.2849 39.3169 17.3888 38.7564 16.3356V26.7769L37.2184 26.778ZM38.6425 9.81105L38.9615 12.8939C39.5243 16.4028 41.5988 18.4762 44.856 18.8659C46.3856 19.1174 47.955 18.8306 49.2968 18.0545C50.6386 17.2783 51.6698 16.0609 52.2144 14.6096C53.4813 11.5906 53.3879 8.1728 51.9638 5.2244C51.3825 3.92346 50.3935 2.84709 49.1464 2.15794C47.8992 1.46879 46.4616 1.20431 45.0508 1.40447C43.7266 1.50081 42.4652 2.00717 41.4419 2.85323C40.4187 3.69928 39.6843 4.84301 39.3408 6.12556C39.0376 7.33926 38.8044 8.56941 38.6425 9.80991V9.81105ZM83.6409 13.3792C83.4249 15.2277 82.5449 16.9349 81.1646 18.1832C79.7842 19.4316 77.9974 20.1361 76.1366 20.1658C70.1646 20.4665 67.362 16.5008 66.9166 11.9244C66.6068 9.43916 67.0102 6.91709 68.0797 4.6525C68.8241 3.09899 70.0438 1.82281 71.5619 1.00882C73.0801 0.194827 74.8181 -0.114696 76.5239 0.125086C78.1456 0.262929 79.6829 0.90729 80.9182 1.96698C82.1535 3.02666 83.0243 4.44801 83.4073 6.02986C83.7107 7.47083 83.934 8.92752 84.0761 10.3932H68.3919C68.1014 14.5424 70.3309 17.8781 73.4912 18.6825C77.4273 19.6508 80.7916 17.9454 82.0129 14.2029C82.284 13.2425 82.7785 13.1069 83.6511 13.3792H83.6409ZM68.3805 9.06484H82.4093C82.3216 4.64452 79.5692 1.43181 75.8358 1.39536C71.6206 1.327 68.5639 4.41097 68.3805 9.06484ZM86.5403 13.476H87.9154C87.9659 14.4891 88.2949 15.4686 88.8661 16.3068C89.4373 17.1449 90.2287 17.8093 91.1531 18.2267C92.3139 18.7491 93.5775 19.003 94.8499 18.9695C96.1224 18.9359 97.3708 18.6159 98.5025 18.0331C99.1193 17.7553 99.6361 17.2949 99.9828 16.714C100.33 16.1332 100.49 15.4598 100.441 14.7851C100.477 14.1343 100.299 13.4897 99.9354 12.949C99.5715 12.4083 99.0413 12.001 98.425 11.7888C96.9121 11.226 95.3034 10.9161 93.762 10.4217C92.1581 9.96504 90.5897 9.3916 89.0694 8.70597C86.5858 7.4938 86.432 2.77272 89.2437 1.27802C90.6834 0.465623 92.3036 0.0266646 93.9565 0.00119263C95.6094 -0.0242793 97.2424 0.364545 98.7064 1.13219C100.522 2.13474 101.526 4.1592 101.228 6.21328H100.048C100.048 6.15631 99.9414 6.10619 99.9414 6.04808C99.7955 2.28854 96.6352 1.11282 93.2425 1.44321C92.2172 1.55713 91.2454 1.86701 90.334 2.32499C89.7861 2.57519 89.3296 2.9895 89.0275 3.51058C88.7254 4.03166 88.5928 4.63374 88.6479 5.23352C88.649 5.83374 88.8361 6.41888 89.1833 6.90848C89.5305 7.39809 90.0209 7.76813 90.5869 7.96773C92.0679 8.51116 93.6401 8.85977 95.1724 9.28586L98.875 10.2542C99.7166 10.5305 100.454 11.0556 100.991 11.7603C101.528 12.4649 101.838 13.3159 101.88 14.2006C102.177 16.1886 101.163 18.1424 99.3695 19.0482C96.1317 20.8801 90.7988 20.3959 88.4235 18.0798C87.2079 16.8574 86.53 15.1975 86.5437 13.4749L86.5403 13.476ZM119.328 6.21442H118.038C118.038 6.04011 117.97 5.87264 117.951 5.73935C117.93 4.77265 117.578 3.84243 116.953 3.10463C116.328 2.36683 115.468 1.86632 114.518 1.68701C112.726 1.17294 110.814 1.26505 109.079 1.94904C108.393 2.14533 107.79 2.55835 107.358 3.12636C106.926 3.69437 106.69 4.38683 106.685 5.10022C106.66 5.8007 106.878 6.48817 107.302 7.04637C107.726 7.60457 108.33 7.99926 109.011 8.16369L114.906 9.67662C115.543 9.8295 116.171 10.0205 116.785 10.2485C118.665 10.9321 119.941 12.6774 119.998 14.6723C120.026 15.6487 119.758 16.6108 119.23 17.4323C118.701 18.2537 117.936 18.896 117.036 19.2749C115.668 19.8963 114.185 20.2251 112.682 20.2402C111.18 20.2554 109.691 19.9564 108.31 19.3626C107.175 18.8731 106.217 18.0476 105.565 16.9972C104.914 15.9468 104.599 14.7219 104.665 13.4874H105.925C106.399 15.7716 107.967 17.6742 110.119 18.5742C112.272 19.4742 114.729 19.2532 116.686 17.9864C117.273 17.681 117.761 17.2137 118.091 16.6399C118.421 16.0661 118.579 15.4097 118.548 14.7486C118.577 14.0974 118.393 13.4544 118.024 12.9171C117.654 12.3799 117.12 11.9778 116.502 11.7717C114.989 11.2089 113.38 10.9093 111.839 10.4046C110.226 9.95498 108.648 9.38802 107.118 8.70825C104.693 7.51545 104.5 2.8331 107.263 1.33953C108.721 0.493047 110.373 0.0382923 112.058 0.0195259C113.743 0.00075952 115.405 0.418621 116.881 1.23244C117.725 1.73629 118.405 2.47474 118.837 3.35786C119.269 4.24099 119.435 5.23069 119.314 6.20644L119.328 6.21442ZM34.875 19.6918C34.3673 19.8838 33.807 19.8833 33.2997 19.6904C32.7924 19.4975 32.3732 19.1256 32.1214 18.6449L27.1086 11.7125L26.3818 10.7441L20.5647 18.6551C20.3276 19.1152 19.9312 19.4732 19.4494 19.6623C18.9676 19.8514 18.4335 19.8587 17.9467 19.6827L25.4408 9.62877L18.4685 0.544333C19.5029 0.170656 20.6559 0.576233 21.2312 1.5127L26.4262 8.53053L31.652 1.54004C31.8908 1.08786 32.2876 0.739229 32.7667 0.560472C33.2458 0.381714 33.774 0.385296 34.2506 0.570537L31.5449 4.16034L27.8799 8.93041C27.7782 9.02124 27.6968 9.13254 27.6411 9.25701C27.5854 9.38148 27.5565 9.51632 27.5565 9.6527C27.5565 9.78907 27.5854 9.92391 27.6411 10.0484C27.6968 10.1729 27.7782 10.2841 27.8799 10.375L34.8601 19.6918H34.875ZM66.6944 0.447497V1.8146C65.7138 1.75029 64.7306 1.89229 63.8083 2.23145C62.886 2.57061 62.0451 3.09939 61.3398 3.78366C60.6345 4.46793 60.0805 5.29248 59.7135 6.2041C59.3466 7.11572 59.1749 8.09415 59.2095 9.07623C59.2095 12.2692 59.2095 15.4622 59.2095 18.6551V19.7408H57.823V0.53294H59.1901V4.46907C60.8671 1.59815 63.4555 0.532941 66.7035 0.455472L66.6944 0.447497ZM0.00227889 9.50345L0.612921 6.48784C2.28991 0.524966 9.12545 -1.95634 13.8283 1.73714C16.5819 3.89945 17.2689 6.96291 17.1344 10.4149H1.62116C1.37053 16.5805 5.81933 20.3036 11.5099 18.4033C13.3851 17.7198 14.7967 16.1613 15.2615 14.2245C15.5623 13.2562 16.059 13.0898 16.9681 13.3701C16.8165 14.5505 16.3992 15.6812 15.7476 16.6771C15.096 17.673 14.2271 18.5082 13.2063 19.1199C11.5197 20.0423 9.58459 20.4078 7.67775 20.1641C5.77091 19.9204 3.98995 19.08 2.58953 17.7631C1.2042 16.2057 0.367981 14.2371 0.205067 12.1579C0.205067 11.8161 0.0911409 11.4972 0.0113928 11.1896C0.00379779 10.6146 0 10.0526 0 9.50345H0.00227889ZM1.64053 9.08649H15.6693C15.5816 4.61718 12.7608 1.44663 8.99899 1.41701C4.81108 1.36004 1.81484 4.4611 1.63028 9.06712L1.64053 9.08649Z" fill="#BDEBEA"/>
    </g>

    <g id="nestjs">
        <path fill-rule="evenodd" clip-rule="evenodd" d="M70.5857 0C69.7619 0.00936615 68.9453 0.154155 68.1685 0.428571C75.0728 4.96286 66.9685 11.5457 70.74 17.1429C70.4761 15.2693 70.7733 13.3595 71.5941 11.6547C72.4148 9.94995 73.7223 8.52656 75.3514 7.56429C76.5728 6.54857 77.3528 6.18429 77.0914 4.50429C76.68 1.75286 73.0114 0 70.5857 0ZM80.4428 1.77429C79.4914 6.58714 78.2999 6.76286 74.7728 9.86143C73.3957 10.9449 72.4236 12.4606 72.0131 14.164C71.6026 15.8675 71.7776 17.6596 72.5099 19.2514C57.9385 13.5943 39.2614 10.1743 25.5685 19.9629C20.6442 23.4814 17.6357 28.5343 11.5628 30.5957C7.6371 31.9371 3.77995 31.5429 1.32853 35.4343C0.428837 36.558 -0.0411517 37.9654 0.00282926 39.4042C0.0468102 40.843 0.601884 42.2191 1.56852 43.2857C2.2971 44.0357 3.71138 44.5157 4.29424 45.2786C4.63281 45.7071 4.62424 46.1357 4.94567 46.7057C5.51236 48.0348 6.33348 49.2403 7.36281 50.2543C7.98852 50.7729 10.1571 51.2786 10.5257 51.8314C10.9842 52.5214 9.78424 55.26 10.7914 55.6886C11.4728 56.0014 13.4571 52.5 13.65 52.1914C13.2557 54.9471 12.7371 59.8371 15.8357 55.7657C17.3057 53.8329 17.3957 53.1943 19.8685 52.7657C24.749 51.9298 29.7498 52.1146 34.5552 53.3084C39.3607 54.5023 43.8665 56.6792 47.7884 59.7019C51.7103 62.7245 54.9631 66.5273 57.3415 70.8702C59.7199 75.2131 61.1723 80.0019 61.6071 84.9343C61.1442 82.7914 58.3457 79.3629 55.74 80.1771C54.63 80.52 54.2185 82.4357 53.4899 83.5457C52.5701 84.9541 51.4349 86.2094 50.1257 87.2657C50.3492 85.1881 50.2451 83.0882 49.8171 81.0429C49.0371 84.2486 47.4728 89.5671 43.5342 88.7057C42.2222 88.5054 40.9928 87.9403 39.9865 87.0749C38.9802 86.2095 38.2374 85.0787 37.8428 83.8114C37.3328 80.5543 40.7742 76.7357 35.2414 76.4657C24.1414 75.9214 26.7085 92.2457 33.2614 96.5014C31.7554 96.668 30.2863 97.0776 28.9114 97.7143C33.0707 100.131 37.7572 101.496 42.5639 101.69C47.3705 101.883 52.1518 100.901 56.4921 98.8262C60.8325 96.7519 64.6006 93.6491 67.469 89.7873C70.3375 85.9255 72.2194 81.4217 72.9514 76.6671C74.4778 83.6224 73.4972 90.8933 70.1828 97.1957C68.7956 99.8304 67.0184 102.24 64.9114 104.344C63.6257 105.63 61.08 107.044 60.2442 108.377C65.4455 107.689 70.5283 106.294 75.3514 104.229C70.3592 111.031 63.7239 116.457 56.0657 120C64.2889 119.418 72.238 116.798 79.1961 112.377C86.1542 107.956 91.9026 101.873 95.9228 94.6757C94.6416 101.874 91.7961 108.703 87.5871 114.681C93.2482 110.891 98.0646 105.972 101.734 100.232C105.403 94.4917 107.846 88.0549 108.909 81.3257C109.962 86.2519 110.264 91.3092 109.804 96.3257C114.456 89.8646 117.599 82.4422 119.002 74.6051C120.404 66.7682 120.031 58.7163 117.909 51.0429C116.284 45.0782 113.849 39.3648 110.67 34.0629C109.44 31.9968 108.093 30.0021 106.637 28.0886C106.067 27.3471 103.02 24.6343 103.02 23.8029C102.994 23.8857 102.973 23.8857 102.956 23.8029C102.956 37.8 87.9557 46.5643 75.3942 42.93C80.2569 42.5484 84.8438 40.5192 88.3971 37.1778C91.9504 33.8365 94.2575 29.3829 94.9371 24.5529C95.5104 19.6687 94.3822 14.7362 91.7428 10.5868C89.1033 6.43752 85.1139 3.32511 80.4471 1.77429H80.4428Z" fill="url(#paint0_linear_1_3081)"/>
        <defs>
        <linearGradient id="paint0_linear_1_3081" x1="59.91" y1="120" x2="59.91" y2="0" gradientUnits="userSpaceOnUse">
        <stop stop-color="#FFB199"/>
        <stop offset="1" stop-color="#FF0844"/>
        </linearGradient>
        </defs>
    </g>

    <g id="docker">
        <path d="M117.523 33.0455C114.821 31.1705 108.628 30.4673 103.787 31.4048C103.224 26.7173 100.634 22.6163 96.1307 18.9834L93.5413 17.1084L91.7394 19.8038C89.488 23.3194 88.3621 28.2413 88.6996 32.9287C88.8121 34.5689 89.375 37.4986 91.0639 40.0767C89.488 41.0142 86.2227 42.1861 81.9444 42.1861H0.541279L0.316279 43.1236C-0.472159 47.8106 -0.472159 62.4586 8.76034 73.7081C15.741 82.2623 26.0994 86.5983 39.7227 86.5983C69.2211 86.5983 91.0639 72.4186 101.31 46.7559C105.363 46.8731 114.033 46.7559 118.424 37.9669C118.536 37.7325 118.761 37.2638 119.549 35.5064L120 34.5689L117.523 33.0455ZM65.6183 0H53.2339V11.7183H65.6183V0ZM65.6183 14.062H53.2339V25.7803H65.6183V14.0616V14.062ZM50.9816 14.062H38.5972V25.7803H50.9816V14.0616V14.062ZM36.3449 14.062H23.96V25.7803H36.3449V14.0616V14.062ZM21.7082 28.1241H9.32331V39.8423H21.7077V28.1236L21.7082 28.1241ZM36.3449 28.1241H23.96V39.8423H36.3449V28.1236V28.1241ZM50.9816 28.1241H38.5972V39.8423H50.9816V28.1236V28.1241ZM65.6188 28.1241H53.2335V39.8423H65.6188V28.1236V28.1241ZM80.2555 28.1241H67.8702V39.8423H80.2555V28.1236V28.1241Z" fill="#2396ED"/>
    </g>

    <g id="reactjs">
        <path d="M0 56.2026C0 65.6782 8.84919 74.5241 22.8007 79.5101C20.0147 94.1754 22.3014 105.995 29.9391 110.601C37.79 115.335 49.4858 112.058 60.5867 101.912C71.4076 111.649 82.3439 115.48 89.9746 110.862C97.8178 106.114 100.203 93.4923 97.3404 78.3693C111.872 73.3458 120 65.803 120 56.2026C120 46.9467 111.134 38.9391 97.3711 33.9849C100.453 18.2369 97.8416 6.70365 89.8877 1.90764C82.2193 -2.71601 71.156 1.31397 60.176 11.3054C48.7532 0.700289 37.799 -2.53759 29.8528 2.27239C22.1918 6.90919 20.0057 18.9441 22.8007 33.8808C9.32028 38.7952 0 46.9837 0 56.2026Z" fill="white"/>
        <path d="M94.4564 38.9045C93.3509 38.5066 92.2053 38.1301 91.0258 37.7741C91.2197 36.9468 91.3976 36.1302 91.5558 35.3275C94.1527 22.1468 92.4548 11.5284 86.6567 8.03231C81.0972 4.68006 72.0049 8.17532 62.8222 16.5312C61.9392 17.3347 61.0537 18.1854 60.1686 19.077C59.5788 18.4871 58.99 17.9171 58.4027 17.3718C48.7789 8.43713 39.1326 4.67193 33.3403 8.17809C27.786 11.5401 26.1412 21.5224 28.4788 34.0139C28.7045 35.2204 28.9684 36.4525 29.2668 37.7053C27.9015 38.1105 26.5835 38.5425 25.3224 39.0021C14.0396 43.1152 6.83387 49.5614 6.83387 56.2478C6.83387 63.1537 14.5692 70.0803 26.3212 74.2803C27.2486 74.6117 28.2109 74.9251 29.2026 75.2226C28.8807 76.5775 28.6007 77.9052 28.3657 79.2002C26.1368 91.4749 27.8774 101.221 33.4169 104.562C39.1387 108.012 48.7414 104.466 58.092 95.9196C58.831 95.244 59.5727 94.5276 60.3158 93.7767C61.2789 94.7464 62.2404 95.6641 63.1968 96.525C72.254 104.674 81.1994 107.965 86.7338 104.615C92.4498 101.155 94.3075 90.6851 91.8957 77.9465C91.7115 76.9736 91.4972 75.9797 91.2565 74.9681C91.9308 74.7597 92.5928 74.5445 93.2384 74.3207C105.456 70.0882 113.405 63.2459 113.405 56.2478C113.405 49.5372 105.966 43.0475 94.4564 38.9045Z" fill="#53C1DE"/>
        <path d="M91.8053 69.8025C91.2225 70.0042 90.6246 70.1992 90.0153 70.3882C88.6666 65.9236 86.8463 61.1762 84.6187 56.2713C86.7444 51.4833 88.4944 46.7965 89.8053 42.3609C90.8955 42.6908 91.9536 43.0387 92.9732 43.4058C102.835 46.9556 108.851 52.2041 108.851 56.2481C108.851 60.5558 102.354 66.1478 91.8053 69.8025ZM87.4283 78.8713C88.4947 84.5041 88.6471 89.5968 87.9406 93.578C87.3059 97.1554 86.0295 99.5405 84.4512 100.496C81.0927 102.528 73.9104 99.8862 66.1646 92.9167C65.2767 92.1178 64.3823 91.2647 63.485 90.3618C66.4879 86.9279 69.4891 82.9358 72.4181 78.5022C77.57 78.0241 82.4374 77.2427 86.8514 76.1758C87.0688 77.0927 87.2619 77.992 87.4283 78.8713ZM43.165 100.144C39.8836 101.356 37.2702 101.391 35.6904 100.438C32.3288 98.4111 30.9314 90.5856 32.8376 80.0883C33.0559 78.8861 33.3158 77.6512 33.6154 76.389C37.981 77.3984 42.8127 78.1247 47.9769 78.5624C50.9257 82.9009 54.0136 86.8886 57.1253 90.3803C56.4455 91.0666 55.7683 91.7199 55.0948 92.3356C50.9601 96.1147 46.8166 98.7959 43.165 100.144ZM27.7923 69.7761C22.5958 67.919 18.3044 65.5053 15.3628 62.8715C12.7196 60.5046 11.3851 58.1548 11.3851 56.2481C11.3851 52.1906 17.1706 47.0151 26.8197 43.4975C27.9905 43.0706 29.2162 42.6684 30.4881 42.2905C31.8216 46.8263 33.571 51.5686 35.6821 56.364C33.5436 61.2306 31.7694 66.0484 30.4228 70.6373C29.5161 70.3648 28.6376 70.078 27.7923 69.7761ZM32.9454 33.1C30.9426 22.3976 32.2727 14.3241 35.6199 12.2982C39.1852 10.14 47.0691 13.2172 55.3784 20.9318C55.9096 21.4249 56.4428 21.941 56.9776 22.475C53.8812 25.9514 50.8216 29.9092 47.899 34.222C42.8869 34.7078 38.0891 35.488 33.678 36.5329C33.4006 35.3665 33.155 34.2204 32.9454 33.1ZM78.9152 44.9688C77.8606 43.0643 76.7781 41.2048 75.6744 39.3961C79.0747 39.8455 82.3325 40.4421 85.3919 41.1722C84.4734 44.2502 83.3286 47.4683 81.981 50.7674C81.0143 48.8484 79.9919 46.9136 78.9152 44.9688ZM60.1688 25.877C62.2687 28.2558 64.3717 30.9116 66.4401 33.7932C64.3557 33.6902 62.2456 33.6367 60.118 33.6367C58.0104 33.6367 55.9158 33.6891 53.8444 33.7902C55.9149 30.9354 58.0361 28.2831 60.1688 25.877ZM41.3023 45.0017C40.249 46.9116 39.2455 48.8359 38.294 50.7639C36.9682 47.4763 35.834 44.2434 34.9076 41.1219C37.9482 40.4104 41.1906 39.8286 44.5693 39.3877C43.4501 41.2131 42.3586 43.0867 41.3023 45.0017ZM44.6666 73.4481C41.1758 73.0409 37.8846 72.4891 34.8448 71.7973C35.786 68.62 36.9453 65.3181 38.2991 61.9597C39.2531 63.8862 40.2605 65.8114 41.3204 67.7254C42.3999 69.6754 43.5185 71.5854 44.6666 73.4481ZM60.2947 86.9549C58.137 84.5206 55.9847 81.8278 53.8827 78.9314C55.9232 79.0151 58.0036 79.0579 60.118 79.0579C62.2901 79.0579 64.4375 79.0067 66.5511 78.9084C64.4758 81.857 62.3804 84.5539 60.2947 86.9549ZM82.0244 61.7885C83.4489 65.1832 84.6496 68.4678 85.603 71.591C82.5131 72.328 79.1769 72.9217 75.6619 73.3628C76.7682 71.5297 77.8603 69.6383 78.9334 67.6927C80.019 65.7243 81.0498 63.7529 82.0244 61.7885ZM74.9898 65.3145C73.3239 68.3347 71.6136 71.2179 69.8774 73.9394C66.715 74.1758 63.4478 74.2976 60.118 74.2976C56.8015 74.2976 53.5756 74.1899 50.4691 73.9791C48.6629 71.2219 46.9154 68.3302 45.2601 65.3405C43.6092 62.359 42.0901 59.3522 40.7133 56.3624C42.0898 53.3656 43.6052 50.3555 45.2467 47.3793C46.8925 44.3952 48.6242 41.5182 50.4138 38.7782C53.5832 38.5277 56.8332 38.397 60.1178 38.397C63.4171 38.397 66.6715 38.5287 69.84 38.7814C71.6022 41.5013 73.3226 44.3696 74.9748 47.3541C76.6459 50.3721 78.1809 53.3622 79.569 56.2947C78.185 59.2777 76.6534 62.2979 74.9898 65.3145ZM84.3814 12.1566C87.9501 14.3085 89.3379 22.9869 87.0957 34.367C86.9527 35.0931 86.7917 35.8328 86.6168 36.5823C82.1954 35.5156 77.3942 34.7218 72.3675 34.2287C69.4392 29.8685 66.4046 25.9046 63.3587 22.4728C64.1776 21.6491 64.9954 20.8636 65.8097 20.1224C73.6775 12.9631 81.031 10.1365 84.3814 12.1566Z" fill="white"/>
        <path d="M60.1182 46.2976C65.3739 46.2976 69.6346 50.7524 69.6346 56.248C69.6346 61.7434 65.3739 66.1984 60.1182 66.1984C54.8626 66.1984 50.6018 61.7434 50.6018 56.248C50.6018 50.7524 54.8626 46.2976 60.1182 46.2976Z" fill="#53C1DE"/>
    </g>

    <g id="reactn">
        <path d="M60 63.6073C65.9173 63.6073 70.7143 58.8103 70.7143 52.893C70.7143 46.9757 65.9173 42.1787 60 42.1787C54.0827 42.1787 49.2857 46.9757 49.2857 52.893C49.2857 58.8103 54.0827 63.6073 60 63.6073Z" fill="#F5DE19"/>
        <path d="M60 77.4583C47.122 77.7698 34.2763 76.0339 21.9429 72.3154C16.2455 70.5094 10.9317 67.6643 6.27 63.924C4.49113 62.6462 3.00974 60.9988 1.92747 59.0946C0.845197 57.1905 0.18767 55.0747 0 52.8926C0 45.8083 7.78286 38.8654 20.82 34.3226C33.4831 30.2972 46.714 28.3463 60 28.5454C73.1087 28.3623 86.1623 30.2779 98.6657 34.2197C104.153 35.969 109.286 38.6765 113.829 42.2169C115.577 43.435 117.036 45.0228 118.103 46.8677C119.169 48.7126 119.817 50.7695 120 52.8926C120 60.2554 111.3 67.7169 97.2857 72.354C85.1911 75.9513 72.6164 77.6727 60 77.4583ZM60 33.6712C47.2891 33.5012 34.6321 35.3559 22.5043 39.1654C10.5043 43.3526 5.12571 49.0783 5.12571 52.8797C5.12571 56.8569 10.9071 63.1097 23.6014 67.4511C35.4003 70.9905 47.6855 72.6381 60 72.3326C72.0703 72.5484 84.1025 70.9152 95.6786 67.4897C108.857 63.1226 114.857 56.8611 114.857 52.8926C114.641 51.5307 114.145 50.2284 113.4 49.0681C112.655 47.9078 111.677 46.9145 110.529 46.1511C106.465 43.0103 101.879 40.6107 96.9814 39.0626C85.0201 35.3072 72.5356 33.4872 60 33.6712Z" fill="#F5DE19"/>
        <path d="M35.6555 106.331C33.6562 106.377 31.6805 105.892 29.9298 104.925C23.7926 101.385 21.6669 91.1767 24.2426 77.6124C27.0825 64.6313 32.0032 52.1951 38.814 40.7852C45.2029 29.3385 53.382 18.9877 63.0412 10.1252C67.2976 6.24538 72.2078 3.1504 77.544 0.983791C79.4742 0.0792446 81.5796 -0.389648 83.7112 -0.389648C85.8428 -0.389648 87.9482 0.0792446 89.8783 0.983791C96.2598 4.66093 98.3726 15.9238 95.394 30.3795C92.4664 42.6562 87.6736 54.4114 81.1826 65.2352C75.0186 76.5468 67.0971 86.8074 57.714 95.6338C53.3031 99.6657 48.184 102.846 42.6155 105.015C40.3861 105.843 38.033 106.287 35.6555 106.331ZM43.254 43.3309C36.7573 54.2566 32.0412 66.1468 29.2826 78.5552C26.9126 91.0481 29.1883 98.5609 32.4969 100.472C35.9255 102.457 44.2483 100.575 54.354 91.7467C63.3113 83.2907 70.8722 73.4689 76.7555 62.6466C82.9738 52.2989 87.5713 41.0601 90.3883 29.3209C93.1912 15.7138 90.7698 7.38236 87.3326 5.40236C86.0444 4.90876 84.6677 4.6878 83.2897 4.75346C81.9118 4.81911 80.5624 5.16995 79.3269 5.78379C74.577 7.74385 70.21 10.5265 66.4269 14.0038C57.1983 22.4929 49.3856 32.4021 43.284 43.3566L43.254 43.3309Z" fill="#F5DE19"/>
        <path d="M84.326 106.387C78.5189 106.387 71.1431 102.872 63.4631 96.2681C53.6347 87.325 45.3173 76.8512 38.8331 65.2524C32.1077 53.9996 27.226 41.7433 24.3731 28.9481C23.1359 23.3188 22.9066 17.5146 23.696 11.8052C23.8785 9.68727 24.5234 7.63513 25.5853 5.79351C26.6472 3.9519 28.1001 2.36567 29.8417 1.14667C36.2146 -2.54333 47.0274 1.24953 58.0631 11.0467C67.2371 19.7132 75.0277 29.7354 81.1631 40.7638C87.8844 51.7539 92.8173 63.7418 95.7774 76.2795C97.0679 82.1154 97.267 88.1398 96.3646 94.0481C96.1499 96.227 95.4665 98.3337 94.3613 100.224C93.2561 102.114 91.7553 103.742 89.9617 104.998C88.2396 105.953 86.2945 106.432 84.326 106.387ZM43.2689 62.6724C49.4893 73.7571 57.4344 83.7811 66.806 92.3681C76.4446 100.661 84.0903 102.444 87.3774 100.511C90.806 98.5181 93.3346 90.3838 90.7289 77.2224C87.874 65.2521 83.1427 53.8091 76.7103 43.3181C70.8553 32.7629 63.4192 23.1661 54.6603 14.861C44.2717 5.6381 35.846 3.57667 32.4132 5.56524C31.3432 6.43474 30.4652 7.51663 29.8345 8.74261C29.2038 9.9686 28.8341 11.312 28.7489 12.6881C28.0675 17.7799 28.2894 22.952 29.4046 27.9667C32.1487 40.203 36.8306 51.9222 43.2731 62.681L43.2689 62.6724Z" fill="#F5DE19"/>
    </g>

    <g id="styled">
        <path d="M68.7672 118.274C68.9472 117.867 69.4014 117.584 69.7314 117.241C74.7665 111.962 79.8445 106.73 84.811 101.386C86.3652 99.9505 87.5661 98.175 88.3199 96.1983C89.0738 94.2216 89.36 92.0973 89.1562 89.9915C89.0003 89.0898 88.7957 88.1972 88.5434 87.3176C87.1893 88.6031 85.9295 89.773 84.661 90.9514C82.6898 92.7855 80.7272 94.6281 78.7389 96.4408C77.5664 97.6362 76.0589 98.4478 74.4155 98.7684C72.772 99.089 71.07 98.9034 69.5343 98.2363C67.9796 97.6651 66.6269 96.65 65.6442 95.3168C64.6615 93.9836 64.0919 92.3912 64.0063 90.7371C63.9603 90.5244 63.8987 90.3153 63.8221 90.1115C62.3094 91.3971 60.861 92.5798 59.4255 93.7968L29.5876 119.079C29.3819 119.255 29.159 119.474 28.9662 119.645H68.7458L68.6858 119.607C68.4715 119.457 68.5829 118.668 68.7672 118.274Z" fill="#FFCEBF"/>
        <path d="M27.1436 118.273C27.4974 117.812 27.9245 117.413 28.4077 117.09L69.6999 82.0589C72.5168 79.6677 75.3207 77.2637 78.1118 74.8469C78.4567 74.6064 78.7269 74.2738 78.8917 73.887C79.5593 70.9778 79.6539 67.9663 79.1702 65.0209C78.7417 65.3209 78.5103 65.4494 78.3132 65.6594C74.9322 68.6848 71.5683 71.7358 68.1701 74.744C67.0444 75.877 65.5884 76.6239 64.0115 76.8772C62.4346 77.1305 60.8179 76.8773 59.394 76.1539C57.9413 75.4681 56.7255 74.3656 55.9014 72.9866C55.0772 71.6077 54.682 70.0148 54.766 68.4105V67.0221C54.1446 67.4763 53.6904 67.7806 53.2662 68.1234C36.7396 81.3561 20.2158 94.5788 3.69492 107.792C2.94929 108.387 2.05797 109.716 1.08094 108.426C0.103917 107.136 1.59088 106.605 2.34079 106.005C19.953 91.872 37.5738 77.7523 55.2031 63.6454C58.0742 61.3442 58.2627 60.38 56.3944 56.7247L55.2802 57.7703C52.2249 60.6114 49.1352 63.414 46.127 66.3022C44.8931 67.4924 43.3476 68.3094 41.6691 68.6588C39.9906 69.0081 38.2475 68.8756 36.6411 68.2765C35.0348 67.6774 33.6306 66.6362 32.5907 65.273C31.5509 63.9099 30.9178 62.2805 30.7646 60.5729C30.1946 61.0014 29.7018 61.3142 29.2347 61.6784L3.09499 81.9389C2.64415 82.3811 2.13001 82.7537 1.56946 83.0445C1.14639 83.1723 0.692093 83.1496 0.283895 82.9802V119.666H27.0921C26.9925 119.446 26.9452 119.205 26.9542 118.963C26.9631 118.722 27.0279 118.486 27.1436 118.273Z" fill="#FFCEBF"/>
        <path d="M99.5653 1.81554C98.8368 4.2024 98.1298 6.59355 97.4913 9.00612C96.9015 10.711 96.9701 12.5748 97.6836 14.2317C98.3972 15.8886 99.7041 17.2192 101.348 17.9622C106.376 20.6053 112.042 21.7926 117.709 21.3904V2.22264C117.646 1.80239 117.669 1.37372 117.777 0.962787C117.897 0.73034 118.049 0.515496 118.227 0.324292H99.5482C99.8353 0.658538 99.7367 1.24561 99.5653 1.81554Z" fill="#FF6196"/>
        <path d="M62.0511 42.9922C61.9622 45.1316 61.2138 47.1912 59.9085 48.8886C55.2419 54.9125 49.8829 60.3665 43.9418 65.1381C42.9837 66.025 41.7694 66.5856 40.473 66.7396C39.1765 66.8935 37.8647 66.6329 36.7255 65.9951C35.5917 65.5107 34.6357 64.6871 33.9888 63.6375C33.342 62.5878 33.0361 61.3636 33.1131 60.133C33.2503 58.6216 33.8778 57.1966 34.9 56.0749C41.5435 49.7401 48.7415 44.0136 56.4075 38.9641C56.9095 38.5704 57.5227 38.3445 58.1602 38.3183C58.7977 38.2922 59.4273 38.4671 59.9599 38.8184C60.66 39.2531 61.2259 39.8732 61.5951 40.6099C61.9642 41.3466 62.122 42.1712 62.0511 42.9922Z" fill="#FF87AF"/>
        <path d="M56.9126 68.9646C56.8132 68.0174 56.9348 67.0601 57.2679 66.1678C57.601 65.2755 58.1365 64.4727 58.8324 63.8224C65.3373 57.8227 72.3163 52.3584 79.7014 47.4829C79.9242 47.3415 80.1299 47.2001 80.3742 47.0544C81.0192 46.5887 81.8008 46.3507 82.596 46.3778C83.3911 46.405 84.1547 46.6958 84.7665 47.2044C85.3585 47.7058 85.7773 48.3811 85.9635 49.1343C86.1496 49.8874 86.0937 50.6801 85.8035 51.3996C84.8692 54.5115 83.1448 57.3283 80.7984 59.5758C76.0329 64.2705 71.1754 68.8708 66.2287 73.3741C65.4837 74.1402 64.5051 74.6368 63.447 74.7858C62.3888 74.9347 61.3112 74.7275 60.3837 74.1969C59.4091 73.6904 58.5792 72.9446 57.972 72.0293C57.3648 71.1141 57.0003 70.0595 56.9126 68.9646Z" fill="#FF87AF"/>
        <path d="M87.8344 71.7961C86.6345 73.0817 85.4004 74.3073 84.2477 75.6228C83.9011 76.1313 83.6135 76.6776 83.3906 77.2512C84.0248 77.4398 84.7662 77.9368 85.2804 77.7611C87.8987 76.8827 90.4527 75.8285 93.328 74.7187C92.7024 76.1585 92.231 77.4869 91.5668 78.7039C88.8305 83.3025 85.4038 87.4533 81.4066 91.011C79.8868 92.4765 78.3084 93.8778 76.6714 95.2148C75.8046 95.9342 74.7622 96.4104 73.6508 96.5947C72.5395 96.779 71.3992 96.6648 70.3465 96.2638C69.2938 95.8628 68.3665 95.1893 67.6595 94.3123C66.9525 93.4353 66.4912 92.3862 66.3227 91.2724C66.254 90.6531 66.3087 90.0263 66.4838 89.4283C66.6588 88.8304 66.9507 88.273 67.3425 87.7885C73.1739 81.4561 79.8383 75.9449 87.153 71.4062C87.242 71.3717 87.3362 71.3528 87.4316 71.3505L87.8344 71.7961Z" fill="#FF87AF"/>
        <path d="M97.6723 54.7281L105.004 22.1605L110.147 23.3647L107.494 31.4252C105.017 38.9243 102.51 46.4234 100.093 53.9311C99.6221 55.3195 99.005 55.5766 97.6723 54.7281Z" fill="#FF6196"/>
        <path d="M89.3858 73.8832C90.1614 70.9221 90.9328 68.1839 91.5841 65.4156C92.2189 62.731 93.4264 60.2154 95.1237 58.0408C96.165 56.6738 97.3349 57.218 98.5305 57.5137C99.636 57.7837 99.9146 58.5936 99.9617 59.6563C100.136 62.5951 99.241 65.4978 97.442 67.8282C95.3003 70.4833 92.5318 72.5641 89.3858 73.8832Z" fill="#FF6196"/>
        <path d="M119.944 3.83399C120.008 2.87961 119.983 1.92137 119.871 0.971474C119.783 0.706144 119.607 0.478249 119.374 0.324408C119.184 0.16973 118.961 0.0598812 118.723 0.00301735C118.585 -0.0226939 118.393 0.118717 118.208 0.320122C118.03 0.511327 117.878 0.726171 117.758 0.958619C117.65 1.36955 117.627 1.79822 117.69 2.21847V21.3819C112.023 21.7841 106.357 20.5969 101.329 17.9537C99.685 17.2107 98.3781 15.8802 97.6646 14.2233C96.951 12.5663 96.8824 10.7026 97.4722 8.99767C98.1107 6.58509 98.8178 4.19395 99.5462 1.80709C99.7177 1.23716 99.8162 0.650083 99.5462 0.315837C99.3961 0.153123 99.1888 0.0548412 98.9677 0.0415845C98.6847 0.0446377 98.4105 0.141042 98.1878 0.315837C97.8674 0.507517 97.6121 0.791222 97.4551 1.13003C96.598 3.70115 95.8438 6.29798 95.1882 8.92053C94.9407 9.95399 94.874 11.0225 94.9911 12.0787C95.1569 13.9898 95.8676 15.8132 97.0389 17.3324C98.2102 18.8515 99.7928 20.0027 101.599 20.6491C102.409 20.9877 102.884 21.3219 102.657 22.3889C102.344 23.7431 102.04 25.0972 101.732 26.4556C99.632 35.6602 97.5436 44.8691 95.4667 54.0823C95.4082 54.4931 95.2275 54.8768 94.9482 55.1836C93.5793 56.2717 92.4291 57.6094 91.5586 59.126C90.4493 61.1274 89.6817 63.2998 89.2875 65.5538C89.2118 66.2728 88.952 66.9601 88.5331 67.5494C88.1143 68.1387 87.5505 68.6099 86.8963 68.9177C85.1094 69.8219 83.4682 70.9917 81.4841 72.2087C81.6164 69.8228 81.5906 67.4307 81.407 65.0482C81.256 64.3153 81.288 63.5564 81.5003 62.8389C81.7126 62.1213 82.0985 61.4672 82.624 60.9344C85.2375 58.3452 87.1005 55.0961 88.0148 51.5326C88.2878 50.7066 88.3627 49.8279 88.2333 48.9675C88.104 48.1072 87.774 47.2894 87.27 46.5802C86.7661 45.871 86.1023 45.2903 85.3325 44.8852C84.5626 44.48 83.7081 44.2616 82.8382 44.2478C81.4298 44.2321 80.047 44.625 78.8573 45.3791C74.7683 48.1713 70.7504 51.0662 66.8073 54.0609C64.4633 55.8264 62.2564 57.7805 59.9852 59.6317C59.8873 59.5265 59.8025 59.41 59.7324 59.2846C59.689 58.9691 59.604 58.6607 59.4796 58.3675C57.5812 55.4364 58.8968 53.3067 60.958 51.117C63.1053 48.866 64.2919 45.8674 64.2661 42.7565C64.3327 41.1715 63.8363 39.6141 62.8649 38.3599C62.3474 37.7233 61.7096 37.1947 60.988 36.8044C59.9629 36.2433 58.7908 36.0092 57.6289 36.1333C56.467 36.2573 55.3708 36.7337 54.4873 37.4986L53.2917 38.3556C50.5621 40.3097 47.7981 42.2123 45.1713 44.3035C41.3364 47.3652 37.5841 50.5288 33.9183 53.7909C32.2042 55.3036 30.953 57.3691 29.1746 58.7746C19.9014 66.098 10.5297 73.2886 1.1922 80.5263C0.871132 80.7179 0.575909 80.9497 0.313735 81.2162C0.286745 81.2552 0.263774 81.2969 0.245172 81.3405C0.0480521 81.799 -0.119071 82.5575 0.112331 82.8361C0.169054 82.8965 0.23761 82.9446 0.313735 82.9775C0.721934 83.1469 1.17623 83.1696 1.5993 83.0417C2.15985 82.751 2.67399 82.3783 3.12483 81.9362L29.2646 61.6757C29.7317 61.3115 30.2245 60.9815 30.7944 60.5701C30.9476 62.2777 31.5807 63.9072 32.6206 65.2703C33.6604 66.6334 35.0646 67.6747 36.671 68.2737C38.2774 68.8728 40.0204 69.0054 41.6989 68.656C43.3774 68.3067 44.9229 67.4897 46.1569 66.2994C49.1565 63.4112 52.2547 60.6087 55.3101 57.7676L56.4242 56.722C58.2926 60.3773 58.104 61.3415 55.2329 63.6426C37.5893 77.7609 19.9585 91.8821 2.34064 106.006C1.59073 106.606 0.108046 107.15 1.08079 108.427C2.05353 109.704 2.94914 108.389 3.69476 107.793C20.2242 94.5918 36.7423 81.3734 53.2489 68.1378C53.6774 67.795 54.1273 67.4907 54.7487 67.0365V68.4249C54.6647 70.0291 55.0599 71.6221 55.8841 73.001C56.7082 74.38 57.924 75.4825 59.3767 76.1683C60.8007 76.8917 62.4173 77.1449 63.9942 76.8916C65.5711 76.6383 67.0271 75.8914 68.1528 74.7584C71.551 71.7588 74.9149 68.6992 78.2959 65.6738C78.5102 65.481 78.7587 65.3353 79.153 65.0353C79.6367 67.9807 79.542 70.9922 78.8744 73.9014C78.7096 74.2882 78.4394 74.6208 78.0945 74.8613C75.3005 77.2753 72.4966 79.6793 69.6826 82.0733L28.4075 117.109C27.9243 117.432 27.4972 117.831 27.1434 118.292C27.0305 118.502 26.9672 118.735 26.9582 118.974C26.9493 119.212 26.9951 119.449 27.092 119.667C27.2856 119.812 27.5094 119.912 27.7468 119.959C27.9842 120.006 28.2291 119.998 28.4633 119.937C28.648 119.884 28.8181 119.788 28.9603 119.659C29.1746 119.487 29.3889 119.269 29.5817 119.093L59.4196 93.8105C60.8551 92.5935 62.3035 91.3936 63.8162 90.1252C63.8928 90.329 63.9544 90.5381 64.0005 90.7508C64.0861 92.4049 64.6556 93.9973 65.6383 95.3305C66.6211 96.6636 67.9737 97.6788 69.5284 98.2499C71.0641 98.9171 72.7662 99.1026 74.4096 98.7821C76.053 98.4615 77.5606 97.6499 78.733 96.4544C80.7213 94.6418 82.684 92.7992 84.6552 90.9651C85.9407 89.7867 87.1834 88.6039 88.5376 87.3312C88.7898 88.2109 88.9944 89.1035 89.1503 90.0052C89.3473 92.104 89.0578 94.22 88.3042 96.1887C87.5506 98.1574 86.3532 99.9259 84.8051 101.357C79.8386 106.705 74.7606 111.937 69.7255 117.212C69.3955 117.555 68.9413 117.838 68.7613 118.245C68.5813 118.652 68.4657 119.449 68.6799 119.62L68.7399 119.659C69.1892 119.877 69.6945 119.954 70.1883 119.877C70.3267 119.849 70.45 119.771 70.5354 119.659C70.6554 119.535 70.7711 119.38 70.8868 119.265C74.9663 115.048 79.0672 110.853 83.1168 106.606C84.7513 104.95 86.288 103.2 87.7191 101.365C89.5851 99.2995 90.8224 96.7438 91.2855 93.9988C91.7486 91.2538 91.4181 88.4336 90.3331 85.87C90.2164 85.2984 90.3304 84.7038 90.6502 84.2159C90.9287 83.7359 91.2372 83.2689 91.5543 82.8061C92.569 81.4887 93.4141 80.049 94.0698 78.5209C95.3368 74.7704 97.2817 71.2844 99.8076 68.2364C100.969 66.7641 101.768 65.0395 102.14 63.2017C102.512 61.3638 102.447 59.4643 101.95 57.6562C101.775 56.9687 101.775 56.2482 101.95 55.5607C104.119 48.8458 106.351 42.1523 108.562 35.4545L112.432 23.7088C114.377 23.7088 116.211 23.6702 118.037 23.7088C119.554 23.7516 120.017 23.0403 120 21.5662C119.91 15.6526 119.944 9.74329 119.944 3.83399ZM43.9371 65.1382C42.9791 66.025 41.7647 66.5856 40.4683 66.7396C39.1719 66.8936 37.86 66.633 36.7208 65.9952C35.587 65.5108 34.631 64.6872 33.9842 63.6375C33.3373 62.5878 33.0314 61.3636 33.1084 60.133C33.2457 58.6217 33.8732 57.1966 34.8953 56.0749C41.5388 49.7402 48.7368 44.0137 56.4028 38.9641C56.8212 38.6683 57.2972 38.4639 57.7998 38.3642C58.1369 38.302 58.4825 38.302 58.8196 38.3642C59.2234 38.4428 59.6086 38.5969 59.9552 38.8184C60.656 39.2534 61.2224 39.8742 61.5916 40.6118C61.9607 41.3493 62.1182 42.1748 62.0464 42.9965C61.9576 45.1359 61.2092 47.1955 59.9038 48.8929C55.237 54.9154 49.878 60.3679 43.9371 65.1382ZM66.2202 73.4043C65.4752 74.1704 64.4966 74.667 63.4385 74.816C62.3803 74.9649 61.3027 74.7577 60.3752 74.2271C59.3988 73.7195 58.5678 72.9716 57.9605 72.0539C57.3533 71.1363 56.9897 70.0791 56.9042 68.982C56.8047 68.0348 56.9263 67.0774 57.2594 66.1851C57.5925 65.2929 58.1281 64.49 58.8239 63.8397C65.3288 57.84 72.3078 52.3758 79.6929 47.5002C79.9157 47.3588 80.1214 47.2174 80.3657 47.0717C81.0107 46.606 81.7923 46.368 82.5875 46.3952C83.3826 46.4223 84.1462 46.7131 84.758 47.2217C85.35 47.7232 85.7688 48.3985 85.955 49.1516C86.1412 49.9047 86.0852 50.6974 85.795 51.4169C84.8607 54.5288 83.1364 57.3457 80.7899 59.5931C76.0633 64.3154 71.1482 68.862 66.2288 73.3872L66.2202 73.4043ZM91.5501 78.7223C88.8175 83.3136 85.3967 87.4585 81.407 91.0122C79.8872 92.4778 78.3088 93.879 76.6718 95.216C75.8049 95.9354 74.7625 96.4116 73.6512 96.5959C72.5399 96.7802 71.3996 96.666 70.3469 96.265C69.2942 95.864 68.3669 95.1905 67.6599 94.3135C66.9529 93.4365 66.4915 92.3874 66.323 91.2736C66.2543 90.6543 66.3091 90.0276 66.4842 89.4296C66.6592 88.8316 66.9511 88.2742 67.3429 87.7897C73.1743 81.4573 79.8387 75.9462 87.1534 71.4074C87.2424 71.3729 87.3366 71.3541 87.432 71.3517L87.8605 71.7802C86.6606 73.0658 85.4265 74.2914 84.2738 75.6069C83.9272 76.1154 83.6396 76.6617 83.4167 77.2353C84.0509 77.4238 84.7923 77.9209 85.3065 77.7452C87.3763 77.051 89.4117 76.2454 91.5929 75.3884L93.3541 74.7027C92.6942 76.1597 92.2228 77.4881 91.5586 78.7051L91.5501 78.7223ZM97.4336 67.8593C95.8352 69.8942 93.8317 71.5752 91.5501 72.7958C90.8444 73.1901 90.1202 73.5586 89.3775 73.9014C90.1402 70.9832 90.903 68.2792 91.5501 65.5452L91.5758 65.4338C92.2106 62.7493 93.418 60.2336 95.1153 58.059C96.1566 56.692 97.3265 57.2362 98.5221 57.5319C99.6277 57.8019 99.9062 58.6118 99.9533 59.6745C100.129 62.6108 99.2372 65.5117 97.4422 67.8421L97.4336 67.8593ZM107.461 31.435C104.984 38.9341 102.477 46.4332 100.06 53.9409C99.6062 55.3507 98.9892 55.6079 97.6565 54.7594L104.988 22.1704L110.131 23.3745L109.098 26.507L107.461 31.435Z" fill="black"/>
    </g>

    <g id="redux">
        <path d="M83.1473 79.5623C87.5756 79.1039 90.9352 75.2864 90.7823 70.7048C90.63 66.1238 86.812 62.4586 82.2309 62.4586H81.9258C77.1914 62.6114 73.5267 66.5817 73.6795 71.3156C73.8323 73.6064 74.7483 75.5916 76.1227 76.9659C70.9308 87.1978 62.9902 94.6805 51.0792 100.942C42.9858 105.217 34.5872 106.745 26.1886 105.676C19.3167 104.76 13.972 101.706 10.612 96.6656C5.72578 89.183 5.26781 81.0891 9.39093 72.9956C12.2925 67.1925 16.8731 62.9166 19.7747 60.7786C19.1639 58.7934 18.2475 55.4339 17.7895 52.9908C-4.35282 69.0253 -2.06204 90.7102 4.65703 100.942C9.69609 108.577 19.9275 113.311 31.2276 113.311C34.2816 113.311 37.3355 113.006 40.3898 112.243C59.9362 108.425 74.7487 96.8184 83.1473 79.5623ZM110.024 60.6263C98.4178 47.0348 81.315 39.5522 61.7686 39.5522H59.3255C57.9511 36.8034 55.0495 34.9706 51.8428 34.9706H51.5372C46.8037 35.1234 43.1391 39.0938 43.2914 43.8281C43.4442 48.4092 47.2617 52.0744 51.8428 52.0744H52.148C55.5075 51.9216 58.4091 49.7836 59.6306 46.882H62.3794C73.9852 46.882 84.9797 50.2416 94.9059 56.8083C102.541 61.8478 108.038 68.4145 111.092 76.3552C113.688 82.7691 113.535 89.0302 110.787 94.3753C106.511 102.469 99.3342 106.897 89.8664 106.897C83.7581 106.897 77.9555 105.065 74.9011 103.69C73.2216 105.217 70.1672 107.661 68.0292 109.188C74.5959 112.242 81.315 113.922 87.7284 113.922C102.388 113.922 113.23 105.828 117.353 97.7348C121.782 88.8773 121.476 73.6064 110.024 60.6263ZM32.4492 82.1578C32.602 86.7394 36.4195 90.4041 41.0006 90.4041H41.3062C46.0401 90.2517 49.7048 86.2809 49.552 81.547C49.3997 76.9655 45.5817 73.3008 41.0006 73.3008H40.6955C40.3898 73.3008 39.9314 73.3008 39.6267 73.4531C33.3656 63.0689 30.7697 51.7687 31.6861 39.5517C32.2964 30.3891 35.3508 22.448 40.6955 15.8813C45.1237 10.2309 53.6751 7.48219 59.4783 7.32984C75.6647 7.02422 82.5361 27.1819 82.9945 35.2758C84.9797 35.7337 88.3392 36.803 90.63 37.5666C88.7972 12.8278 73.5267 0 58.8675 0C45.1237 0 32.4492 9.92625 27.4097 24.5864C20.3855 44.1333 24.9666 62.9166 33.518 77.7295C32.7548 78.7983 32.2964 80.4783 32.4492 82.1583V82.1578Z" fill="#764ABC"/>
    </g>

    <g id="git">
        <path d="M103.02 47.8217L57.1758 1.98013C54.5372 -0.660044 50.2552 -0.660044 47.6134 1.98013L38.0937 11.4999L50.1699 23.5761C52.9762 22.6278 56.1943 23.264 58.4313 25.501C60.6789 27.7523 61.3106 30.9979 60.3393 33.8132L71.9775 45.4518C74.7932 44.4818 78.0421 45.1093 80.291 47.3619C83.434 50.5037 83.434 55.5958 80.291 58.7396C77.1471 61.8839 72.055 61.8839 68.9095 58.7396C66.5454 56.373 65.9613 52.901 67.1582 49.9885L56.3046 39.135L56.3034 67.697C57.0902 68.086 57.8088 68.5999 58.4313 69.2187C61.5743 72.3605 61.5743 77.453 58.4313 80.5993C55.2874 83.7419 50.1929 83.7419 47.0535 80.5993C43.9105 77.453 43.9105 72.3609 47.0535 69.2191C47.8067 68.4655 48.7019 67.8687 49.6871 67.4632V38.635C48.7004 38.2322 47.8048 37.635 47.0535 36.8791C44.6722 34.501 44.0996 31.0069 45.3198 28.0829L33.4154 16.1773L1.98105 47.6096C-0.660352 50.2522 -0.660352 54.5347 1.98105 57.1753L47.8259 103.018C50.4652 105.658 54.7464 105.658 57.3891 103.018L103.019 57.3881C105.66 54.7467 105.66 50.4618 103.019 47.8217" fill="#DE4C36"/>
    </g>


    <!-- social icons-->

    <g id="gmail">
        <path d="M37.7365 18.8683C37.7365 29.2889 29.2889 37.7365 18.8683 37.7365C8.4476 37.7365 0 29.2889 0 18.8683C0 8.4476 8.4476 0 18.8683 0C29.2889 0 37.7365 8.4476 37.7365 18.8683Z" fill="url(#paint0_linear_107139_661)"/>
        <path d="M30.6609 11.4974V26.2383C30.6609 27.0748 30.0234 27.7123 29.1868 27.7123H27.7127V14.3343L18.8682 20.6876L10.0238 14.3343V27.7123H8.54967C7.71313 27.7123 7.07559 27.0748 7.07559 26.2383V11.4974C7.07559 11.0788 7.23332 10.7103 7.49792 10.4494C7.63572 10.3115 7.79985 10.2027 7.98053 10.1295C8.16121 10.0563 8.35476 10.0202 8.54967 10.0234H9.04128L18.8682 17.1483L28.6952 10.0234H29.1868C29.6055 10.0234 29.974 10.1811 30.2386 10.4494C30.5032 10.7103 30.6609 11.0788 30.6609 11.4974Z" fill="#1F2626"/>
        <defs>
        <linearGradient id="paint0_linear_107139_661" x1="0" y1="18.8683" x2="37.7365" y2="18.8683" gradientUnits="userSpaceOnUse">
        <stop stop-color="#00F5A0"/>
        <stop offset="1" stop-color="#00D9F5"/>
        </linearGradient>
        </defs>
    </g>

    <g id="linkedin">
        <path d="M37.7365 18.8683C37.7365 29.2889 29.2889 37.7365 18.8683 37.7365C8.4476 37.7365 0 29.2889 0 18.8683C0 8.44761 8.4476 0 18.8683 0C29.2889 0 37.7365 8.44761 37.7365 18.8683Z" fill="url(#paint0_linear_107139_662)"/>
        <path d="M9.57958 28.7053H13.5276V14.0976H9.57958V28.7053ZM11.5536 7.64921C10.2376 7.64921 9.18478 8.70202 9.18478 10.018C9.18478 11.334 10.2376 12.3868 11.5536 12.3868C12.8696 12.3868 13.9224 11.334 13.9224 10.018C13.9224 8.70202 12.8696 7.64921 11.5536 7.64921ZM20.2392 16.3349V14.0976H16.2912V28.7053H20.2392V21.2041C20.2392 16.9929 25.6349 16.7297 25.6349 21.2041V28.7053H29.5829V19.7565C29.5829 12.65 22.0816 12.9132 20.2392 16.3349Z" fill="#1F2626"/>
        <defs>
        <linearGradient id="paint0_linear_107139_662" x1="0" y1="18.8683" x2="37.7365" y2="18.8683" gradientUnits="userSpaceOnUse">
        <stop stop-color="#00F5A0"/>
        <stop offset="1" stop-color="#00D9F5"/>
        </linearGradient>
        </defs>
    </g>

    <g id="github">
        <path d="M37.7365 18.8683C37.7365 29.2889 29.2889 37.7365 18.8683 37.7365C8.4476 37.7365 0 29.2889 0 18.8683C0 8.4476 8.4476 0 18.8683 0C29.2889 0 37.7365 8.4476 37.7365 18.8683Z" fill="#1F2626"/>
        <path fill-rule="evenodd" clip-rule="evenodd" d="M18.8683 0C8.44354 0 0 8.44354 0 18.8683C0 27.2175 5.40104 34.2695 12.9012 36.7695C13.8446 36.9346 14.1984 36.3686 14.1984 35.8733C14.1984 35.4251 14.1748 33.9393 14.1748 32.3591C9.43413 33.2317 8.20769 31.2034 7.83032 30.142C7.61806 29.5996 6.69823 27.925 5.89633 27.4769C5.23594 27.1231 4.29253 26.2505 5.87274 26.2269C7.35862 26.2033 8.41996 27.5948 8.77374 28.1609C10.4719 31.0147 13.1842 30.2128 14.2691 29.7175C14.4342 28.4911 14.9295 27.6656 15.472 27.1939C11.2738 26.7222 6.88691 25.0948 6.88691 17.8777C6.88691 15.8257 7.61806 14.1276 8.82091 12.8068C8.63223 12.3351 7.97184 10.4011 9.00959 7.80674C9.00959 7.80674 10.5898 7.31145 14.1984 9.74073C15.7078 9.3162 17.3116 9.10393 18.9154 9.10393C20.5192 9.10393 22.123 9.3162 23.6325 9.74073C27.241 7.28786 28.8213 7.80674 28.8213 7.80674C29.859 10.4011 29.1986 12.3351 29.0099 12.8068C30.2128 14.1276 30.9439 15.8022 30.9439 17.8777C30.9439 25.1184 26.5335 26.7222 22.3353 27.1939C23.0193 27.7835 23.6089 28.9156 23.6089 30.6845C23.6089 33.2081 23.5853 35.2365 23.5853 35.8733C23.5853 36.3686 23.9391 36.9582 24.8825 36.7695C28.6281 35.5049 31.8829 33.0976 34.1887 29.8863C36.4946 26.6751 37.7354 22.8216 37.7365 18.8683C37.7365 8.44354 29.293 0 18.8683 0Z" fill="url(#paint0_linear_107139_663)"/>
        <defs>
        <linearGradient id="paint0_linear_107139_663" x1="0" y1="18.8683" x2="37.7365" y2="18.8683" gradientUnits="userSpaceOnUse">
        <stop stop-color="#00F5A0"/>
        <stop offset="1" stop-color="#00D9F5"/>
        </linearGradient>
        </defs>
    </g>
</svg>

